<svg xmlns="http://www.w3.org/2000/svg" width="950" height="950" viewBox="0 0 950 950">
  <g id="Dotted_two_line" data-name="Dotted two line" transform="translate(2953 -6872)">
    <g id="Big_logo" data-name="Big logo" transform="translate(-1035 -70)">
      <rect id="Rectangle_17523" data-name="Rectangle 17523" width="950" height="950" transform="translate(-1918 6942)" fill="none"/>
    </g>
    <g id="Dotted_two_line-2" data-name="Dotted two line" transform="translate(-4327 2366)">
      <g id="Ellipse_1541" data-name="Ellipse 1541" transform="translate(1422 4554)" fill="none" stroke="#fc0" stroke-width="2" stroke-dasharray="13">
        <circle cx="427" cy="427" r="427" stroke="none"/>
        <circle cx="427" cy="427" r="426" fill="none"/>
      </g>
      <g id="Group_39904" data-name="Group 39904">
        <g id="Group_39869" data-name="Group 39869" transform="translate(374 -157)">
          <circle id="Ellipse_1542" data-name="Ellipse 1542" cx="15" cy="15" r="15" transform="translate(1268 4742)" fill="#fc0"/>
          <g id="Ellipse_1543" data-name="Ellipse 1543" transform="translate(1253 4727)" fill="none" stroke="#fc0" stroke-width="2">
            <circle cx="30" cy="30" r="30" stroke="none"/>
            <circle cx="30" cy="30" r="29" fill="none"/>
          </g>
        </g>
        <g id="Group_39902" data-name="Group 39902" transform="translate(991 224)">
          <circle id="Ellipse_1542-2" data-name="Ellipse 1542" cx="15" cy="15" r="15" transform="translate(1268 4742)" fill="#fc0"/>
          <g id="Ellipse_1543-2" data-name="Ellipse 1543" transform="translate(1253 4727)" fill="none" stroke="#fc0" stroke-width="2">
            <circle cx="30" cy="30" r="30" stroke="none"/>
            <circle cx="30" cy="30" r="29" fill="none"/>
          </g>
        </g>
        <g id="Group_39903" data-name="Group 39903" transform="translate(337 581)">
          <circle id="Ellipse_1542-3" data-name="Ellipse 1542" cx="15" cy="15" r="15" transform="translate(1268 4742)" fill="#fc0"/>
          <g id="Ellipse_1543-3" data-name="Ellipse 1543" transform="translate(1253 4727)" fill="none" stroke="#fc0" stroke-width="2">
            <circle cx="30" cy="30" r="30" stroke="none"/>
            <circle cx="30" cy="30" r="29" fill="none"/>
          </g>
        </g>
      </g>
      <g id="Ellipse_1548" data-name="Ellipse 1548" transform="translate(1374 4506)" fill="none" stroke="#fc0" stroke-width="2" stroke-dasharray="13">
        <circle cx="475" cy="475" r="475" stroke="none"/>
        <circle cx="475" cy="475" r="474" fill="none"/>
      </g>
    </g>
  </g>
</svg>
