<svg xmlns="http://www.w3.org/2000/svg" xmlns:xlink="http://www.w3.org/1999/xlink" width="1920" height="1627" viewBox="0 0 1920 1627">
  <defs>
    <clipPath id="clip-path">
      <rect id="Rectangle_17497" data-name="Rectangle 17497" width="1920" height="1627" transform="translate(2.76 2773.885)" fill="#fff" stroke="#707070" stroke-width="1"/>
    </clipPath>
    <linearGradient id="linear-gradient" x1="0.795" y1="-0.391" x2="-0.092" y2="-0.293" gradientUnits="objectBoundingBox">
      <stop offset="0" stop-color="#fff"/>
      <stop offset="1" stop-color="#060707"/>
    </linearGradient>
    <linearGradient id="linear-gradient-23" x1="0.795" y1="1.391" x2="-0.092" y2="1.293" xlink:href="#linear-gradient"/>
  </defs>
  <g id="The_SRG_Ecosystem_lines_bg" data-name="The SRG Ecosystem lines bg" transform="translate(-2.76 -2773.885)">
    <g id="Mask_Group_104" data-name="Mask Group 104" clip-path="url(#clip-path)">
      <g id="Group_39934" data-name="Group 39934">
        <g id="b" transform="translate(1610.24 3565.584) rotate(149)" opacity="0.45">
          <g id="c">
            <g id="Group_39820" data-name="Group 39820">
              <g id="Group_39798" data-name="Group 39798" transform="translate(0 624.347)">
                <path id="Path_34318" data-name="Path 34318" d="M0,489.5l39.235-29.669L77.821,432.27l37.97-25.486,37.451-23.443,36.867-21.5,36.349-19.617,35.83-17.769,35.279-16.018,34.857-14.332L366.794,281.4l33.917-11.154,33.56-9.63,33.074-8.236,32.782-6.842,32.36-5.545,32.036-4.312,31.712-3.145,31.388-2.075,31.128-1.005,30.869-.065,30.577.908,30.415,1.686,30.123,2.5,30.026,3.145,59.435,8.268,58.981,10.279,58.625,11.8,58.365,12.776,116.86,26.459H1163l58.722,12.613h-.032l59.176,11.511h-.032l59.792,9.89-.032-.032,60.505,7.75h-.032l30.609,2.918h-.032l30.8,2.14h-.032l31.1,1.329h-.032l31.42.519h-.032l31.647-.422h-.033l32.036-1.459h-.032l32.36-2.5h-.065l32.717-3.6h-.033l33.139-4.8h-.065l33.528-6.1H1720l33.917-7.425-.032.032,34.371-8.787h-.033l34.857-10.279-.033.032,35.279-11.77h-.032l35.83-13.359h-.033L1930.37,270.4l-.032.032,36.9-16.764-.032.032,37.451-18.547-.033.032,38-20.363h-.032l38.618-22.276,1.2,2.108-38.618,22.309-38.035,20.363-37.516,18.547-36.9,16.764-36.349,15.045-35.862,13.392-35.344,11.77-34.89,10.279-34.435,8.787-33.949,7.425-33.56,6.128-33.171,4.8-32.749,3.632-32.393,2.5-32.069,1.459-31.712.422-31.42-.519-31.161-1.329-30.836-2.172-30.642-2.886-60.538-7.75-59.824-9.89L1221.2,322.186l-58.722-12.613-116.828-26.459h0l-58.365-12.776h.032l-58.592-11.8.032.032-58.949-10.279h.033l-59.4-8.236h.032l-29.961-3.145h.032l-30.123-2.5h.033l-30.35-1.686h.032l-30.577-.908h.032l-30.8.065h.032l-31.1,1.005h.065l-31.355,2.043h.032l-31.679,3.145h.032l-31.971,4.313h.032l-32.328,5.545.065-.032-32.75,6.874.065-.032-33.041,8.2h.033l-33.5,9.63h.032L367.572,283.7h.032l-34.338,12.678h.032l-34.792,14.3h.032l-35.246,15.986.032-.032L227.56,344.4h.032l-36.316,19.585h.032l-36.835,21.433h.065L117.12,408.859l.032-.032L79.182,434.28h.032l-38.554,27.5h0l-39.2,29.669Z" transform="translate(0 -192.55)" fill="url(#linear-gradient)"/>
              </g>
              <g id="Group_39799" data-name="Group 39799" transform="translate(0.422 594.613)">
                <path id="Path_34319" data-name="Path 34319" d="M.13,500.628l37.613-30.22L74.9,442.393l36.705-25.973,36.154-23.93,35.765-21.984,35.343-20.071,34.89-18.223,34.468-16.472,34.111-14.753,33.722-13.2,33.4-11.543L422.5,266.194l32.717-8.658,32.425-7.263,32.133-5.966,31.842-4.7,31.582-3.534,31.355-2.432,31.1-1.394,30.934-.389,30.739.486,30.545,1.3,30.382,2.172,30.253,2.853,60.051,7.523,59.76,9.63,59.435,11.154,59.338,12.192,118.871,25.259,59.76,12.062h0l60.149,10.992h-.032l60.732,9.371h-.032l61.413,7.231h-.032l31,2.659h-.032l31.226,1.881h-.033l31.42,1.135h-.032l31.679.259h-.032l32-.648h-.032l32.231-1.686h-.032l32.522-2.691h-.032l32.879-3.891h-.065l33.2-5.026-.065.032,33.528-6.323h-.032l33.917-7.62-.065.032,34.273-9.014h-.032l34.7-10.441h-.033l35.084-11.965h-.032l35.506-13.554h-.033l35.992-15.207-.065.032,36.478-16.926h-.065l36.9-18.709h-.032l37.386-20.558-.032.032L2077,183.38l1.232,2.108-37.938,22.5-37.418,20.558-36.932,18.742-36.511,16.958-36.025,15.207-35.538,13.586-35.149,12-34.727,10.473-34.306,9.014-33.982,7.62-33.528,6.323-33.236,5.058-32.912,3.859-32.555,2.724-32.3,1.686-32.036.649-31.712-.259-31.452-1.135-31.258-1.881-31.031-2.691-61.446-7.231-60.8-9.371-60.181-10.992-59.792-12.062L1036.6,281.531h0l-59.338-12.159h.032l-59.435-11.187.032.032-59.695-9.63.032.032-60.019-7.555h.032l-30.22-2.821h.032l-30.35-2.172h.032l-30.512-1.3h.032l-30.707-.486h.065l-30.9.389h.032l-31.063,1.394h.065L583.395,238.5h.032l-31.517,3.534h.032l-31.809,4.669h.065l-32.1,5.966h.065L455.769,259.9h.032l-32.685,8.625h.065L390.173,278.58l.065-.032L356.9,290.091h.032l-33.69,13.132h.032L289.2,317.945h.032l-34.4,16.472.032-.033-34.857,18.191.032-.032-35.279,20.071h.032l-35.733,21.919.032-.032-36.154,23.962.032-.033-36.64,25.94.032-.032L39.235,472.353l.032-.032L1.654,502.541Z" transform="translate(-0.13 -183.38)" fill="url(#linear-gradient)"/>
              </g>
              <g id="Group_39800" data-name="Group 39800" transform="translate(0.843 564.88)">
                <path id="Path_34320" data-name="Path 34320" d="M.26,511.789l36.057-30.707,35.733-28.534,35.311-26.459,34.954-24.416,34.63-22.438,34.306-20.525L245.2,340l33.69-16.958,33.366-15.207,33.106-13.554,32.782-12.062,32.587-10.473,32.328-9.047,32.069-7.685,31.906-6.323,31.647-5.123,31.485-3.923,31.323-2.853,31.1-1.751,31-.811,30.8.162,30.739,1.005,30.545,1.751,30.544,2.5,60.7,6.874,60.473,8.949,60.343,10.538,60.278,11.576,120.881,24.124v-.032l60.8,11.543h-.032l61.186,10.408h-.032l61.705,8.852h-.065l62.321,6.712h-.032l31.388,2.4h-.032l31.582,1.719h-.032l31.809.843h-.033l32,.032h-.033l32.231-.94h-.032l32.458-1.848h-.032l32.75-2.951h-.065l32.976-4.053h-.033l33.3-5.285h-.032l33.56-6.485h-.065l33.884-7.847-.033.032,34.209-9.241-.065.032,34.5-10.668-.032.032,34.857-12.224-.032.033,35.214-13.781-.032.032,35.635-15.4h-.032l35.96-17.121-.032.032,36.349-18.936-.032.032,36.835-20.785-.032.032,37.191-22.665,1.265,2.075-37.224,22.665-36.835,20.785-36.413,18.936-36.025,17.153-35.668,15.434-35.246,13.781-34.922,12.224-34.533,10.668-34.241,9.209-33.917,7.879-33.625,6.485L1652,336.79l-33.009,4.053-32.782,2.951-32.49,1.881-32.263.94-32.069-.033-31.809-.875-31.647-1.686-31.388-2.4-62.354-6.744-61.738-8.852-61.219-10.409-60.8-11.543-120.881-24.092h0l-60.278-11.576h.032L907,257.867l.032.032-60.473-8.949h.065l-60.668-6.874h.032l-30.48-2.5h.032L725,237.828h.032l-30.707-1.005h.032l-30.772-.162h.032l-30.934.811h.032l-31.1,1.751h.065l-31.29,2.821h.033L539,245.967h.032l-31.582,5.123.033-.032-31.874,6.355.065-.032-32.036,7.685h.065l-32.3,9.014h.032l-32.522,10.473.065-.032L346.2,296.55l.065-.032L313.2,310.072h.065l-33.333,15.175.032-.032L246.3,342.173l.065-.032-33.917,18.677h.032L178.21,381.31h.032l-34.565,22.406.032-.032-34.922,24.384h.032L73.509,454.494l.032-.032-35.7,28.5.032-.032L1.816,513.637Z" transform="translate(-0.26 -174.21)" fill="url(#linear-gradient)"/>
              </g>
              <g id="Group_39801" data-name="Group 39801" transform="translate(1.232 535.146)">
                <path id="Path_34321" data-name="Path 34321" d="M.38,522.917l34.5-31.193,34.273-29.053,34.014-26.945,33.722-24.9L170.418,387.9l33.236-20.979,33.074-19.163,32.847-17.38,32.62-15.661,32.458-14.04,32.231-12.451,32.133-10.895,31.906-9.468,31.744-8.074,31.647-6.777,31.517-5.48,31.323-4.345,31.258-3.178,31.128-2.173L650.6,236.7l30.934-.227,30.9.616,30.771,1.394,30.772,2.14,61.316,6.226,61.251,8.3,61.186,9.89L1018.986,276l122.892,22.957h-.032l61.867,10.927h-.032l62.224,9.922-.032-.033,62.613,8.333h-.032l63.164,6.193h-.033l31.809,2.173h-.032L1455.3,337.9h-.032l32.2.648h-.032l32.3-.195h-.032l32.49-1.135h-.032l32.685-2.14h-.033l32.912-3.178-.032.032,33.139-4.313-.033.032,33.333-5.512h-.032l33.56-6.68h-.032l33.852-8.041h-.065l34.144-9.436h-.065l34.338-10.895-.032.032,34.662-12.386-.032.032,34.922-13.975-.065.032,35.279-15.629h-.033l35.506-17.283H1960l35.862-19.131-.032.032,36.154-20.947-.033.032,36.543-22.86,1.265,2.075-36.544,22.86-36.186,20.947-35.895,19.163L1925.562,247.4l-35.311,15.629L1855.3,277.037l-34.7,12.386-34.4,10.895-34.144,9.436-33.884,8.074-33.625,6.712-33.4,5.512-33.171,4.28-32.944,3.178-32.749,2.14-32.523,1.135-32.36.195-32.2-.648-31.971-1.427-31.809-2.172-63.229-6.226-62.646-8.3-62.256-9.922-61.867-10.927L1018.532,278.4h0l-61.219-10.96h.033l-61.154-9.89.033.032-61.219-8.3h.032l-61.284-6.226h.032l-30.707-2.14-30.739-1.394h.032L681.5,238.9h.032l-30.9.227h.032l-31,1.135h.032l-31.1,2.14h.033l-31.226,3.21h.065l-31.29,4.313h.032l-31.452,5.48h.032l-31.582,6.744.032-.032-31.712,8.074h.065l-31.874,9.468.032-.032-32.068,10.895.065-.032-32.231,12.451.065-.032L303.2,316.92h.032l-32.587,15.629h.032L237.862,349.9h.065l-33.041,19.1h.065l-33.236,20.947.032-.032L138.284,412.8l.032-.032-33.69,24.9h.032L70.678,464.584l.032-.032L36.469,493.54H36.5L2,524.7Z" transform="translate(-0.38 -165.04)" fill="url(#linear-gradient)"/>
              </g>
              <g id="Group_39802" data-name="Group 39802" transform="translate(1.654 505.379)">
                <path id="Path_34322" data-name="Path 34322" d="M.51,534.068l32.944-31.744,32.814-29.539,32.652-27.4,32.555-25.357,32.36-23.379,32.231-21.5L228.2,355.534,260.236,337.7l31.906-16.115,31.809-14.429,31.679-12.905,31.615-11.316,31.485-9.89,31.453-8.5,31.388-7.166,31.29-5.9,31.258-4.669,31.193-3.632,31.161-2.5,31.1-1.556,31.063-.584,31.031.259,31.031,1.07,30.966,1.816,31,2.464,30.966,3.048,62.029,7.652,62.062,9.274,62.159,10.311L1134.841,296.2h-.032l62.872,10.409h0l63.2,9.371h-.032l63.618,7.782h-.032l64.04,5.707h-.032l32.2,1.913h0l32.328,1.2h-.032l32.49.389h-.032l32.587-.422h-.032l32.782-1.394h-.032l32.912-2.3h-.032l33.106-3.437h-.032l33.268-4.507-.032.032,33.43-5.739h-.032l33.625-6.939h-.065l33.819-8.236h-.032l34.014-9.63h-.065l34.241-11.057-.065.032,34.4-12.613h-.032l34.63-14.17-.064.032,34.89-15.823-.065.032,35.117-17.542-.033.032,35.344-19.293-.032.032,35.571-21.141-.065.032,35.8-23.087,1.329,2.075-35.83,23.054-35.6,21.141-35.344,19.325L1923.585,239l-34.89,15.823-34.7,14.2-34.4,12.613-34.273,11.089-34.047,9.63-33.884,8.268-33.657,6.971-33.463,5.739-33.3,4.507-33.171,3.4-32.944,2.335-32.814,1.394-32.652.422-32.523-.389-32.36-1.2-32.231-1.913L1324.2,326.19l-63.683-7.782-63.229-9.371L1134.419,298.6l-124.967-21.757h.032l-62.159-10.311h0L885.3,257.254h.032l-61.965-7.62h.032l-30.966-3.048h.032L761.5,244.121l-30.934-1.816h.032l-31-1.07h.032l-31-.259h.032l-31.031.584h.032L606.6,243.084h.032l-31.128,2.529h.065l-31.161,3.6h.032l-31.193,4.669h.065l-31.29,5.9h.065l-31.323,7.133h.033l-31.388,8.463h.032l-31.452,9.89.032-.032-31.55,11.316.032-.032-31.615,12.873.032-.032L293.148,323.79l.065-.032-31.874,16.115.065-.032-32,17.8h.032l-32.069,19.585.032-.032L165.2,398.66l.032-.033L132.9,421.974h.032L100.412,447.3l.032-.033L67.857,474.632h.032L35.108,504.139l.032-.032L2.2,535.819Z" transform="translate(-0.51 -155.86)" fill="url(#linear-gradient)"/>
              </g>
              <g id="Group_39803" data-name="Group 39803" transform="translate(2.043 475.678)">
                <path id="Path_34323" data-name="Path 34323" d="M.63,545.141,32.018,512.91l31.355-29.993L94.7,455l31.323-25.875,31.225-23.833L188.5,383.339l31.193-20.071,31.193-18.288,31.193-16.537,31.161-14.916,31.128-13.294,31.128-11.77,31.161-10.279,31.063-8.884,31.161-7.588,31.128-6.291,31.128-5.123,31.128-3.956,31.161-2.886,31.161-1.913,31.161-.94,31.226-.1,31.225.713,31.226,1.427,31.29,2.14,31.323,2.691,62.775,7,62.872,8.658,63.164,9.7,126.977,20.622h0l63.878,9.825h0l64.2,8.82-.032-.032,64.591,7.328h-.032l64.915,5.188h-.032l32.587,1.654h0l32.684.973h-.032l32.847.162h-.032l32.911-.681h-.032l33.041-1.589h-.032l33.171-2.626h-.032l33.268-3.6h-.032l33.4-4.734h-.065l33.528-5.934h-.033l33.658-7.166-.033.032,33.787-8.463-.032.032,33.917-9.89-.032.032,34.014-11.284h-.032l34.176-12.776h-.032l34.338-14.364-.032.032,34.5-16.018-.032.032,34.63-17.737-.033.032,34.792-19.52-.032.032,34.954-21.336-.032.032L2060.02,146.7l1.33,2.01-35.116,23.249-35.019,21.368-34.825,19.488-34.695,17.769L1887.161,246.6l-34.4,14.4-34.241,12.808-34.079,11.284-33.95,9.89-33.819,8.463-33.722,7.166-33.56,5.934-33.431,4.767-33.333,3.6-33.2,2.594-33.073,1.621-32.944.681-32.879-.162-32.717-.973-32.652-1.654-64.948-5.22-64.624-7.3-64.234-8.787-63.91-9.857-126.977-20.622h0l-63.132-9.7h.032l-62.872-8.658h.033l-62.743-6.971h.032l-31.29-2.691-31.225-2.14L718.1,243.651l-31.161-.713h.032l-31.193.1h.033l-31.128.94h.032l-31.128,1.881h.032l-31.1,2.918.032-.032-31.1,3.956h.032l-31.063,5.123.032-.032-31.1,6.29h.065l-31.1,7.588.032-.032-31.031,8.885.032-.032-31.1,10.279h.032L345.245,302.5h.032l-31.063,13.262.032-.032-31.1,14.883.032-.032L252.055,347.12l.032-.032-31.128,18.255.032-.032-31.128,20.071.032-.032L158.67,407.269l.032-.032-31.193,23.8.032-.032L96.284,456.88l.032-.032L65.026,484.7h.032L33.736,514.661l.032-.032-31.388,32.2Z" transform="translate(-0.63 -146.7)" fill="url(#linear-gradient)"/>
              </g>
              <g id="Group_39804" data-name="Group 39804" transform="translate(2.464 445.944)">
                <path id="Path_34324" data-name="Path 34324" d="M.76,556.269l29.831-32.685,29.9-30.512,29.993-28.437,30.058-26.329,30.123-24.351,30.22-22.373,30.285-20.525,30.35-18.774,30.415-16.991,30.512-15.337,30.642-13.683,30.642-12.192,30.707-10.733,30.772-9.338,30.9-7.944,30.934-6.68,31.031-5.512,31.063-4.345,31.161-3.275,31.258-2.3,31.258-1.3,31.42-.421,31.388.324,31.517,1.135,31.615,1.751,31.647,2.4,63.521,6.323,63.748,7.977,64.1,9.111,128.955,19.455,64.948,9.306h-.032l65.24,8.236h-.032l65.531,6.777h-.032l65.823,4.7h-.032l33.009,1.394h-.032l33.106.746h-.032l33.139-.13h-.033l33.268-.875h-.032l33.3-1.848h-.032l33.366-2.789h-.032l33.5-3.859h-.065l33.528-4.961-.033.032,33.593-6.128h-.065l33.722-7.36h-.033l33.722-8.69h-.032l33.82-10.052-.032.032,33.884-11.511h-.032l33.949-13-.032.032L1884.6,236.2h-.065l34.111-16.213-.032.032,34.176-17.931-.032.032,34.306-19.65H1987l34.306-21.53-.033.032,34.436-23.443,1.362,2.043-34.436,23.411L1988.3,184.547l-34.338,19.682-34.241,17.931L1885.573,238.4,1851.462,253l-34.014,13.035L1783.5,277.542l-33.852,10.052-33.787,8.722-33.755,7.361-33.625,6.128-33.56,4.993-33.528,3.826-33.431,2.821-33.3,1.848-33.3.875-33.2.13-33.106-.746-33.041-1.394-65.856-4.7-65.564-6.777-65.239-8.268-64.98-9.306L991.382,273.683h.033l-64.072-9.111h.032L863.627,256.6h.033l-63.489-6.323h0l-31.615-2.4h.032l-31.55-1.751h0l-31.485-1.135h.032l-31.388-.324h.032l-31.355.421h.032l-31.258,1.3h.065l-31.225,2.3h.065l-31.128,3.243h.032L518.429,256.3l.032-.032-30.966,5.512h.032l-30.9,6.647h.065l-30.836,7.944.032-.032-30.707,9.338.032-.032-30.674,10.7h.065l-30.609,12.159.032-.032-30.545,13.683h.032l-30.447,15.3.032-.033-30.35,16.958h.032L212.464,373.1h.032l-30.22,20.46.065-.032L152.121,415.9l.032-.032-30.091,24.319.065-.032L92.1,466.451l.032-.032L62.206,494.791h.032l-29.9,30.48.032-.032L2.543,557.923Z" transform="translate(-0.76 -137.53)" fill="url(#linear-gradient)"/>
              </g>
              <g id="Group_39805" data-name="Group 39805" transform="translate(2.886 416.21)">
                <path id="Path_34325" data-name="Path 34325" d="M.89,567.43l28.275-33.236,28.437-31L86.266,474.3l28.826-26.816,29.021-24.838,29.183-22.827,29.377-20.979,29.507-19.228,29.734-17.445,29.831-15.759,30.058-14.17,30.188-12.581,30.318-11.154,30.447-9.728,30.674-8.366,30.739-7.134,30.9-5.837,31-4.767,31.193-3.632,31.29-2.659,31.388-1.686,31.55-.811,31.647.032,31.744.746,31.906,1.394,31.971,2.075,64.267,5.674,64.656,7.361,65.012,8.5,65.369,9.111,65.661,9.176,65.985,8.722h-.032l66.212,7.75h-.032l66.5,6.258h-.065l66.731,4.15h-.032l33.4,1.167h-.032l33.5.486h-.032l33.528-.324h-.032L1512.845,315l-.032.032,33.593-2.075h-.033l33.593-3.048h-.033l33.657-4.053h-.032l33.657-5.188h-.065l33.722-6.355-.032.033,33.722-7.587h-.065l33.722-8.885h-.032l33.722-10.279h-.032l33.755-11.673h-.065l33.722-13.2-.033.032,33.755-14.786-.032.032,33.754-16.407h-.032l33.722-18.126-.065.032,33.787-19.844-.065.032,33.722-21.725-.032.032,33.722-23.638,1.394,2.01-33.755,23.638-33.755,21.725-33.787,19.877-33.755,18.158-33.819,16.44-33.82,14.786-33.755,13.229-33.819,11.706-33.755,10.279-33.754,8.917-33.787,7.587-33.722,6.355-33.69,5.188-33.722,4.086-33.625,3.048-33.625,2.043-33.56,1.167-33.56.324-33.5-.486-33.43-1.167-66.764-4.183-66.5-6.258-66.245-7.75-65.985-8.722-65.661-9.176-65.369-9.112h0l-64.98-8.5h0l-64.624-7.328h.033l-64.267-5.674h.032L756.624,248.5h.032L724.783,247.1h.032l-31.744-.746h.032l-31.615-.032h.033L630,247.134h.032l-31.323,1.686h.032l-31.258,2.626h.032l-31.161,3.632h.065l-30.966,4.766h.032l-30.836,5.837h.032l-30.707,7.1.065-.032-30.609,8.366.065-.032-30.447,9.728.065-.033-30.285,11.154.065-.032-30.123,12.581h.032l-29.993,14.1.032-.032L263.08,344.312l.032-.032-29.669,17.445.065-.032-29.475,19.163.032-.032-29.312,20.947.032-.032-29.15,22.827.065-.032-28.988,24.805.032-.032L87.952,476.056l.032-.032L59.353,504.882l.032-.032-28.4,31,.032-.065L2.738,569.019Z" transform="translate(-0.89 -128.36)" fill="url(#linear-gradient)"/>
              </g>
              <g id="Group_39806" data-name="Group 39806" transform="translate(3.307 386.541)">
                <path id="Path_34326" data-name="Path 34326" d="M1.02,578.513l26.654-33.722,27.043-31.485,27.3-29.41,27.626-27.27L137.53,431.3l28.178-23.281,28.4-21.465,28.729-19.65L251.8,349.04l29.215-16.245L310.454,318.2l29.7-13.035,29.961-11.511,30.156-10.149,30.35-8.787,30.609-7.49L492,260.973l30.966-5.156,31.193-3.988,31.355-3.016,31.517-2.043,31.712-1.2,31.874-.324,31.971.357,32.166,1.1,32.328,1.718,65.045,5.026,65.5,6.744,65.985,7.879,66.342,8.5,66.731,8.593h-.032l66.99,8.2h0l67.25,7.2h-.032l67.444,5.674h-.032l67.574,3.729h-.032l33.82.94h-.032l33.852.195h-.032l33.884-.551h-.032l33.852-1.394h-.032l33.852-2.3h-.032l33.82-3.243h-.032l33.852-4.313h-.065l33.787-5.415-.032.032,33.787-6.582H1680l33.722-7.782-.032.032,33.657-9.144h-.032L1780.969,260l-.032.032L1814.53,248.1l-.033.032,33.528-13.424-.065.032,33.43-14.98-.032.032,33.366-16.634-.032.032,33.3-18.32-.032.032,33.236-20.071-.032.032,33.106-21.887-.032.032,32.976-23.8,1.427,1.945-33.009,23.833-33.171,21.919-33.268,20.071-33.366,18.353-33.4,16.634-33.5,15.013-33.56,13.424-33.657,11.932-33.69,10.441L1714.3,281.92l-33.787,7.814-33.819,6.55-33.82,5.415-33.884,4.313-33.852,3.275-33.917,2.3-33.884,1.394-33.884.551-33.884-.194-33.819-.94-67.639-3.729L1240.636,303l-67.25-7.231-67.023-8.171-66.731-8.625-66.342-8.5h.032l-65.953-7.847L841.9,255.882h.032l-65.013-5.026h.033l-32.3-1.719-32.133-1.1h.032l-31.971-.357h.032L648.779,248h.032l-31.647,1.167h.032l-31.485,2.075h.032l-31.355,2.983h.065l-31.128,4.021.032-.032-30.966,5.123h.065l-30.739,6.291.065-.032-30.545,7.49h.065l-30.35,8.755.065-.032-30.123,10.117h.065l-29.9,11.511.065-.032-29.669,13h.065l-29.41,14.559.065-.032L253,351.148l.065-.032-28.923,17.834.032-.032-28.664,19.617.065-.032-28.4,21.433.065-.032-28.145,23.281.065-.065L111.3,458.41l.032-.033L83.769,485.615l.032-.033-27.27,29.345.032-.032L29.554,546.38l.032-.065L2.9,580.037Z" transform="translate(-1.02 -119.21)" fill="url(#linear-gradient)"/>
              </g>
              <g id="Group_39807" data-name="Group 39807" transform="translate(3.729 356.742)">
                <path id="Path_34327" data-name="Path 34327" d="M1.15,589.686l25.1-34.209,25.583-32.036,26.005-29.864L104.2,465.789l26.751-25.746,27.14-23.8,27.529-21.919L213.5,374.253l28.21-18.353,28.6-16.634,28.923-15.045L328.45,310.8l29.507-11.965,29.864-10.538,30.091-9.176,30.447-7.944,30.609-6.615,30.934-5.48,31.193-4.442,31.388-3.372,31.679-2.464L636,247.276l32.1-.681,32.263.065,32.458.778,32.62,1.362,65.791,4.377,66.407,6.064,66.893,7.263,67.347,7.912,67.736,8.009,68.028,7.62h-.032l68.255,6.68h0l68.385,5.188h-.032l68.482,3.145h-.032l34.208.681h-.032l34.241-.032h-.032l34.208-.746h-.032l34.176-1.654h-.032l34.111-2.5h-.033l34.046-3.5h-.032l33.982-4.54h-.032l33.949-5.577h-.033l33.884-6.777h-.032l33.722-8.041-.032.032,33.69-9.338h-.065l33.56-10.668H1780l33.463-12.127-.065.032,33.3-13.586h-.032l33.139-15.143h-.032l33.009-16.8h-.033l32.879-18.482-.065.032,32.685-20.266-.065.032,32.523-22.114-.065.032,32.328-23.995,1.459,1.946-32.36,24.027-32.522,22.146L1946.825,178.4l-32.912,18.515-33.074,16.829-33.2,15.207L1814.3,242.542l-33.5,12.159-33.592,10.7-33.722,9.339-33.755,8.041-33.949,6.777-33.981,5.61-34.047,4.572-34.079,3.469-34.144,2.529-34.208,1.654-34.209.746-34.273.032-34.241-.681-68.514-3.145-68.45-5.22-68.287-6.647-68-7.62-67.769-8.041-67.347-7.879h.032l-66.893-7.263h.033l-66.375-6.063h.033l-65.758-4.377h.032l-32.62-1.362h.032l-32.425-.778-32.231-.065.032-.032-32.069.713h.032l-31.809,1.524h.032l-31.615,2.432h.032l-31.355,3.4h.033l-31.128,4.41.032-.032-30.9,5.512.065-.032-30.609,6.647.065-.032-30.382,7.912h.032L388.534,290.6h.065L358.8,301.1h.032L329.39,313.034l.065-.033-29.183,13.424.065-.032-28.891,15.013.065-.032-28.534,16.6.032-.033-28.178,18.32.065-.033L187.076,396.27l.032-.033-27.464,21.919.032-.065L132.569,441.86l.065-.032L105.916,467.54l.032-.032L79.619,495.232l.032-.032L53.679,525l.032-.032-25.551,32,.032-.032L3.1,591.145Z" transform="translate(-1.15 -110.02)" fill="url(#linear-gradient)"/>
              </g>
              <g id="Group_39808" data-name="Group 39808" transform="translate(4.118 327.041)">
                <path id="Path_34328" data-name="Path 34328" d="M1.27,600.824,24.843,566.1l24.124-32.555,24.643-30.318,25.162-28.242,25.648-26.264,26.135-24.254,26.589-22.373,27.043-20.558,27.529-18.774L259.6,345.67l28.372-15.434,28.729-13.91,29.15-12.354,29.507-10.992,29.864-9.565,30.22-8.268,30.577-7.036,30.869-5.9,31.161-4.8,31.452-3.761,31.777-2.789,32.036-1.881,32.263-1.07,32.522-.292,32.782.422,32.976,1.07,66.5,3.7,67.25,5.447,67.866,6.68,68.352,7.3,68.774,7.458,69.066,7.069h-.032l69.26,6.1h-.032l69.39,4.7h-.032l69.325,2.691-.032-.032,34.663.454h-.032l34.6-.292h-.032l34.533-1.005h-.032l34.468-1.881h-.032l34.4-2.756h-.032L1576.324,291h-.065l34.176-4.734-.032.033,34.079-5.9-.033.032,33.982-7h-.065l33.787-8.236h-.032l33.593-9.5-.033.032,33.463-10.895h-.032l33.268-12.354-.032.032,33.074-13.813-.033.032,32.847-15.37-.065.032,32.652-17.023-.032.032,32.393-18.709-.065.032,32.2-20.46-.032.032,31.841-22.276-.032.032,31.615-24.189,1.492,1.913-31.647,24.222L1976.646,149.3,1944.415,169.8l-32.425,18.709-32.717,17.056-32.879,15.37-33.138,13.813-33.333,12.386-33.528,10.895-33.657,9.5-33.82,8.268-34.014,7-34.111,5.869-34.209,4.766-34.338,3.729-34.436,2.756-34.5,1.881-34.533,1.005-34.63.292-34.663-.454-69.39-2.659-69.422-4.7-69.26-6.1-69.066-7.069-68.774-7.458-68.352-7.328-67.834-6.647-67.217-5.447h.032l-66.472-3.729.032.032-32.944-1.07-32.749-.389h.032l-32.49.259h.032l-32.231,1.07h.032l-32,1.881h.032l-31.744,2.789h.065l-31.42,3.761h.032l-31.128,4.767h.032l-30.8,5.869h.032l-30.512,7.036.032-.032-30.155,8.3.065-.032-29.864,9.533h.065l-29.442,10.96.065-.032-29.118,12.354.065-.032-28.7,13.878.065-.032-28.307,15.4.032-.032-27.821,17.088.032-.033-27.464,18.709.065-.032L178.636,404l.065-.032-26.556,22.309.032-.032-26.1,24.222.065-.032-25.616,26.232.032-.065-25.1,28.21.032-.032L50.881,535.066l.032-.032-24.124,32.49.032-.032L3.28,602.186Z" transform="translate(-1.27 -100.86)" fill="url(#linear-gradient)"/>
              </g>
              <g id="Group_39809" data-name="Group 39809" transform="translate(4.54 297.307)">
                <path id="Path_34329" data-name="Path 34329" d="M1.4,611.952l21.984-35.214L46.05,543.7l23.314-30.8,23.9-28.761,24.546-26.718,25.13-24.74,25.648-22.827,26.264-20.979,26.718-19.228,27.3-17.51,27.756-15.888L304.9,321.909l28.761-12.776,29.183-11.349,29.6-10.019,30.058-8.658,30.447-7.425,30.8-6.291,31.193-5.188,31.517-4.086,31.874-3.178,32.2-2.237,32.523-1.394,32.749-.648,33.041.1,33.3.681,67.315,3.048,68.125,4.831,68.774,6,69.358,6.777,69.811,6.874,70.071,6.485,70.265,5.577h-.032l70.33,4.15h-.032l70.265,2.173h-.032l35.019.195,34.954-.519h-.032l34.857-1.3h-.032l34.825-2.075h-.032l34.662-2.951h-.033l34.533-3.988h-.032l34.338-4.961h-.032l34.241-6.064-.032.032,34.014-7.231h-.032l33.787-8.431h-.065l33.625-9.792-.065.032,33.365-11.089h-.033L1811.31,224.7h-.065l32.847-14.008-.033.032,32.555-15.564-.032.032,32.3-17.218-.065.032,31.939-18.9-.032.032,31.615-20.687-.033.032,31.291-22.438-.032.032,30.9-24.384,1.491,1.913-30.933,24.384-31.323,22.5-31.679,20.687-31.971,18.936-32.36,17.218-32.62,15.6-32.879,14.04-33.171,12.549-33.431,11.089-33.657,9.792-33.819,8.463-34.047,7.231-34.306,6.063-34.371,4.993-34.565,3.956-34.7,2.983-34.857,2.075-34.857,1.3-35.019.519-35.052-.195-70.3-2.173-70.363-4.15-70.265-5.577-70.1-6.517-69.812-6.874-69.357-6.744h.032l-68.806-6h.032l-68.093-4.831h.032l-67.282-3.048h.032l-33.268-.681h.032l-33.041-.1h.032l-32.717.648h.032l-32.523,1.394h.032l-32.133,2.237h.032l-31.841,3.145h.032l-31.485,4.118h.032l-31.128,5.156.032-.032-30.772,6.29h.065l-30.382,7.393h.032L393.161,290.1h.032l-29.539,9.987.032-.032-29.118,11.316h.065l-28.729,12.743h.065l-28.21,14.267.065-.033L250.1,354.2l.065-.032-27.237,17.51.032-.032-26.686,19.163.065-.033-26.2,20.947.032-.032-25.616,22.762.065-.032-25.065,24.708.032-.032L95.076,485.754l.065-.032-23.9,28.7.032-.032L48,545.157l.032-.065L25.395,578.068l.032-.032L3.443,613.249Z" transform="translate(-1.4 -91.69)" fill="url(#linear-gradient)"/>
              </g>
              <g id="Group_39810" data-name="Group 39810" transform="translate(4.961 267.573)">
                <path id="Path_34330" data-name="Path 34330" d="M1.53,623.113l20.428-35.733L43.2,553.853,65.148,522.53l22.7-29.247,23.411-27.14,24.092-25.227,24.74-23.281,25.421-21.465,26.005-19.682,26.654-17.964,27.2-16.277,27.821-14.753L321.5,314.3l28.891-11.8,29.377-10.376L409.6,283.07l30.318-7.879,30.772-6.647L501.916,263l31.582-4.475,32-3.534L597.83,252.4l32.717-1.783,33.041-.973,33.366-.259,33.625.357,68.061,2.4,68.936,4.183,69.779,5.415,70.363,6.128,70.816,6.323,71.109,5.966h0l71.271,5.026,71.238,3.664h-.032l71.141,1.654h-.032l35.441-.065h-.032l35.343-.778,35.214-1.492h-.033l35.084-2.335h-.032l34.954-3.243-.032.032,34.76-4.183h-.032l34.533-5.22-.032.032,34.338-6.29h-.032l34.111-7.425h-.032l33.819-8.658h-.032l33.56-9.955h-.032l33.3-11.284-.065.032,32.976-12.776-.065.032,32.62-14.235-.032.032,32.263-15.759-.033.032,31.874-17.445-.032.032,31.517-19.066h-.065l31.1-20.817-.032.032,30.674-22.7-.032.032,30.22-24.546,1.524,1.913-30.252,24.546-30.707,22.73-31.161,20.849-31.55,19.131-31.939,17.445-32.328,15.791-32.652,14.235-33.041,12.776-33.333,11.284-33.625,9.987-33.852,8.69-34.176,7.458-34.371,6.258-34.565,5.22-34.792,4.183-34.987,3.21-35.116,2.367-35.279,1.492-35.343.778-35.506.065-71.141-1.686-71.3-3.632-71.3-5.026-71.109-6-70.849-6.291-70.33-6.128h0l-69.747-5.415h.032l-68.936-4.183h.032l-68.061-2.4h.032l-33.593-.357h.032l-33.333.259h.032l-33.009.973h.032l-32.685,1.783h.032l-32.3,2.594h.032l-32,3.5h.065l-31.55,4.475h.032l-31.161,5.545.032-.032-30.707,6.647h.032L410.25,285.4h.032l-29.766,9.014h.032l-29.312,10.376.032-.032-28.794,11.77.032-.032-28.242,13.2.032-.032-27.756,14.721.065-.065L239.434,360.6l.065-.032L212.878,378.5l.065-.032L187,398.082l.032-.032-25.324,21.433.032-.065-24.708,23.249.032-.032L113.04,467.8l.032-.065L89.694,494.839l.032-.032L67.094,523.989l.032-.032L45.207,555.215l.032-.033L24.033,588.645l.032-.032-20.428,35.7Z" transform="translate(-1.53 -82.52)" fill="url(#linear-gradient)"/>
              </g>
              <g id="Group_39811" data-name="Group 39811" transform="translate(5.383 237.839)">
                <path id="Path_34331" data-name="Path 34331" d="M1.66,634.274l18.871-36.219,19.747-34.046L60.933,532.2,82.4,502.5l22.276-27.691,23.087-25.648,23.833-23.768L176.14,403.5l25.324-20.1,25.973-18.418,26.686-16.731,27.3-15.143,27.918-13.651,28.567-12.192,29.118-10.8L396.7,287l30.22-8.2,30.739-7.036,31.161-5.934,31.68-4.864,32.133-3.891,32.49-2.983,32.912-2.108,33.268-1.3,33.657-.648,33.949.032,68.839,1.751,69.844,3.534,70.687,4.831,71.368,5.512,71.854,5.739h-.032l72.178,5.383,72.243,4.507,72.243,3.113h-.032l71.984,1.167h-.033l35.862-.292h-.032l35.733-1.005h-.032l35.57-1.751h-.033L1502.526,280h-.033l35.214-3.47h-.032l34.954-4.41h-.032l34.76-5.383h-.032l34.468-6.518h-.032l34.176-7.685h-.032l33.884-8.852h-.065l33.56-10.182-.065.032,33.171-11.543-.033.032,32.815-12.938-.032.032,32.393-14.429h-.032l31.971-15.953-.065.032,31.55-17.607-.065.032,31.063-19.325-.032.032,30.577-21.012-.065.032,30.058-22.827-.065.032,29.54-24.773,1.557,1.881L1997.983,100l-30.091,22.86L1937.25,143.94l-31.1,19.325L1874.573,180.9l-32,15.986-32.49,14.462-32.847,12.938L1744,235.833,1710.4,246.014l-33.917,8.885-34.241,7.717-34.5,6.517-34.792,5.415-34.987,4.41-35.246,3.47-35.441,2.562-35.6,1.751-35.733,1.005-35.895.292-72.016-1.167-72.276-3.113-72.276-4.507-72.178-5.415-71.854-5.707-71.368-5.512-70.655-4.831h0l-69.811-3.534h.032L718.873,252.5h.032l-33.917-.032h.032l-33.657.648h.032l-33.236,1.3-32.847,2.108h.032l-32.49,2.983h.032l-32.1,3.859h.032l-31.582,4.864.032-.032-31.161,5.966.065-.032-30.707,7.036.065-.032-30.188,8.2h.065l-29.6,9.436h.032l-29.053,10.765.065-.032-28.5,12.192.032-.032-27.853,13.619.065-.032-27.27,15.11.065-.032-26.621,16.7.032-.032-25.908,18.353.065-.032-25.292,20.071.065-.065-24.481,21.855.032-.032-23.768,23.735.032-.065-23.022,25.616.032-.065L84.312,503.989l.032-.033L62.911,533.593l.032-.032L42.321,565.305l.032-.065L22.639,599.222l.032-.032L3.8,635.376Z" transform="translate(-1.66 -73.35)" fill="url(#linear-gradient)"/>
              </g>
              <g id="Group_39812" data-name="Group 39812" transform="translate(5.804 208.137)">
                <path id="Path_34332" data-name="Path 34332" d="M1.79,645.379l17.315-36.738,18.32-34.5,19.293-32.3,20.233-30.22,21.174-28.113,22.017-26.135,22.925-24.222L166.8,410.815l24.546-20.558,25.389-18.871,26.07-17.153,26.848-15.6,27.561-14.04,28.21-12.581L354.284,300.8l29.507-9.857,30.058-8.593,30.674-7.425,31.225-6.323,31.712-5.253,32.231-4.215,32.685-3.34,33.106-2.5,33.56-1.654,33.949-.973,34.273-.259,69.584,1.07,70.719,2.886,71.627,4.215,72.341,4.929,72.924,5.156,73.184,4.831h-.032l73.314,3.956h-.032l73.184,2.594h-.032l72.892.649h-.033l36.252-.551h-.033l36.122-1.232h-.032l35.895-1.978h-.032l35.733-2.789h-.033l35.473-3.729h-.032l35.214-4.6h-.032l34.89-5.642-.033.032,34.63-6.744h-.032l34.273-7.912h-.032l33.884-9.079-.032.032,33.5-10.408-.032.032,33.074-11.738h-.033l32.653-13.1h-.033l32.166-14.624-.065.032,31.68-16.213-.032.032,31.161-17.8-.033.032,30.609-19.488-.032.032,30.058-21.239-.065.032,29.442-23.022-.033.032,28.794-24.9,1.589,1.816-28.826,24.967-29.474,23.054L1934.884,135.3l-30.674,19.52-31.225,17.834-31.712,16.213-32.231,14.656-32.717,13.132-33.139,11.77-33.56,10.376-33.917,9.111-34.338,7.912-34.663,6.744-34.922,5.642-35.279,4.637-35.506,3.7-35.733,2.821-35.927,1.978-36.154,1.232-36.251.551-72.924-.649-73.216-2.594-73.313-3.956L1064.3,271.1l-72.924-5.156-72.341-4.929h.032L847.439,256.8h.032l-70.687-2.886h.032l-69.552-1.07h.032l-34.273.259-33.917.973h.032l-33.5,1.654h.032l-33.106,2.5h.032l-32.652,3.34.032-.032-32.2,4.215h.065L476.171,271h.032l-31.161,6.29h.032l-30.609,7.393h.033l-30.026,8.593.065-.032L355.063,303.1l.065-.032-28.794,11.187h.065L298.221,326.8l.065-.032-27.5,14.008.032-.032-26.751,15.6.065-.032L218.1,373.4l.032-.033L192.839,392.2l.065-.065-24.513,20.525.065-.065-23.7,22.309.065-.032-22.892,24.157.032-.065-21.952,26.1.032-.065L78.93,513.052l.032-.032-20.2,30.155.032-.065L39.533,575.341l.032-.032L21.278,609.744l.032-.032L3.995,646.417Z" transform="translate(-1.79 -64.19)" fill="url(#linear-gradient)"/>
              </g>
              <g id="Group_39813" data-name="Group 39813" transform="translate(6.226 178.404)">
                <path id="Path_34333" data-name="Path 34333" d="M1.92,656.54l15.759-37.224L34.507,584.3l18-32.782,19-30.674,20.006-28.631,21.044-26.621,21.952-24.643,22.925-22.827,23.833-21.012L206,377.845l25.519-17.639,26.362-15.986,27.14-14.462,27.886-12.97,28.631-11.641L370.854,294.9l29.961-9.014,30.609-7.814,31.225-6.68,31.809-5.577,32.328-4.637,32.847-3.664,33.333-2.853,33.787-2.01,34.241-1.329,34.63-.616,70.33.454,71.562,2.27,72.6,3.567,73.346,4.345,73.929,4.572,74.189,4.28,74.319,3.437h-.032l74.189,2.075h-.032l73.735.13h-.032l36.673-.778h-.032l36.511-1.492h-.032l36.251-2.237h-.032l36.024-3.016h-.032l35.733-3.923h-.032l35.441-4.864h-.065l35.116-5.869-.033.032,34.76-6.971h-.033l34.371-8.074h-.065l33.949-9.338h-.065l33.5-10.571h-.065l33.009-11.932-.064.032,32.522-13.327h-.065l31.971-14.851-.032.032,31.355-16.375h-.065l30.836-17.964-.064.032,30.155-19.65-.065.032L1960.6,103.3l-.065.065,28.826-23.281-.032.065,28.113-25.13,1.621,1.816-28.145,25.13-28.859,23.314-29.572,21.465-30.22,19.682L1871.4,164.455l-31.388,16.407-32.036,14.883L1775.417,209.1l-33.041,11.932-33.528,10.6-33.949,9.338-34.435,8.106-34.792,6.971-35.149,5.869-35.441,4.864-35.8,3.923-36.024,3.048L1426.976,276l-36.511,1.492-36.705.778-73.767-.13-74.189-2.075-74.351-3.437-74.189-4.28-73.93-4.572-73.346-4.345-72.568-3.567h.032l-71.562-2.27h.032l-70.3-.454h.032l-34.6.616h.032l-34.241,1.329h.032l-33.755,2.01h.032l-33.333,2.853.032-.032-32.782,3.664h.032l-32.3,4.637h.032l-31.777,5.577h.065l-31.161,6.68.032-.032-30.545,7.782.032-.032-29.9,9.047.032-.032-29.28,10.246.065-.032-28.567,11.608.065-.032-27.853,12.97.065-.032-27.075,14.429.065-.032-26.3,15.953.065-.032L207.4,379.823l.065-.032-24.676,19.228.065-.065-23.768,20.979.032-.065-22.86,22.762.065-.065L114.4,467.177l.032-.032L93.456,493.7l.032-.065L73.515,522.2l.032-.065L54.579,552.779l.032-.065L36.647,585.432l.032-.065-16.8,34.954v-.032L4.157,657.48Z" transform="translate(-1.92 -55.02)" fill="url(#linear-gradient)"/>
              </g>
              <g id="Group_39814" data-name="Group 39814" transform="translate(6.615 148.67)">
                <path id="Path_34334" data-name="Path 34334" d="M2.04,667.7l14.2-37.743,15.4-35.506,16.634-33.3,17.769-31.128,18.9-29.085,20.006-27.107,21.076-25.1,22.082-23.281L171.2,404.019l24.027-19.747,25.032-18.028,25.875-16.407,26.751-14.916L300.449,321.5l28.372-12,29.118-10.668,29.9-9.371,30.545-8.2,31.226-7.036,31.874-6,32.458-4.993,32.976-4.053,33.56-3.145,34.046-2.367,34.533-1.654,34.954-.973,35.343-.389,35.765.162,72.406,1.654,73.573,2.951,74.383,3.761,74.935,4.021,75.194,3.7h0l75.356,2.918h-.032l75.064,1.524h-.032l74.675-.357h-.032l37.062-1.038h-.032l36.868-1.751-.033.032,36.608-2.464h-.032l36.349-3.275h-.032l35.992-4.183-.032.032,35.668-5.123h-.033l35.311-6.1h-.065l34.857-7.134h-.032l34.468-8.333h-.065l33.949-9.5h-.032l33.43-10.8h-.032l32.944-12.127h-.065l32.328-13.521h-.065l31.744-15.045-.032.032,31.064-16.6-.033.032,30.447-18.191-.065.032,29.7-19.877-.032.032,28.988-21.628-.032.032,28.177-23.379-.065.032,27.432-25.324,1.654,1.783L1987.371,72.99l-28.21,23.443-29.053,21.66L1900.341,138l-30.512,18.223-31.128,16.6L1806.924,187.9l-32.36,13.586-33.009,12.159-33.5,10.83-33.981,9.5-34.5,8.366-34.89,7.166-35.344,6.1-35.7,5.123-36.025,4.15-36.381,3.307-36.608,2.432-36.9,1.718-37.094,1.07-74.675.357-75.1-1.524-75.356-2.918-75.227-3.729-74.935-3.988-74.383-3.761H901l-73.54-2.951-72.373-1.654h.032l-35.765-.162h.032l-35.311.389-34.922.973h.032L614.65,256.1h.032l-34.014,2.367h.032l-33.528,3.145h.032l-32.976,4.053h.032l-32.393,4.993.032-.032-31.842,5.966h.032l-31.161,7.036h.032l-30.48,8.171.032-.032-29.8,9.4.032-.032-29.085,10.635h.065l-28.275,11.965.032-.032-27.529,13.392.065-.032-26.686,14.883.065-.032-25.81,16.342.065-.032-24.967,18,.065-.033-23.962,19.682.032-.032L149.769,427.2l.065-.065-22.017,23.249.065-.065-21.044,25.032.065-.032L86.929,502.365l.032-.065L68.09,531.288l.032-.032-17.7,31.063.032-.065-16.6,33.236.032-.032L18.512,630.9v-.032L4.342,668.544Z" transform="translate(-2.04 -45.85)" fill="url(#linear-gradient)"/>
              </g>
              <g id="Group_39815" data-name="Group 39815" transform="translate(7.069 118.936)">
                <path id="Path_34335" data-name="Path 34335" d="M2.18,678.8l12.581-38.229,13.975-35.992,15.3-33.82,16.537-31.582,17.8-29.6,18.969-27.5,20.136-25.616,21.3-23.7,22.341-21.887L184.507,390.7l24.449-18.482,25.421-16.829,26.329-15.337L287.943,326.2l28.113-12.386,28.956-11.057,29.734-9.792,30.512-8.56,31.225-7.425,31.939-6.355,32.555-5.35,33.2-4.41,33.755-3.534,34.306-2.691,34.792-2.01,35.279-1.3,35.765-.713,36.089-.162,73.313.973L891.96,253.8l75.389,3.145,75.94,3.437,76.3,3.178h-.033l76.329,2.367h-.032l76.069,1.005h-.032l75.551-.876h-.032l37.484-1.265,37.192-1.945h-.032l36.965-2.724h-.032l36.641-3.534h-.033l36.284-4.377-.033.032,35.895-5.318h-.032l35.473-6.323h-.032l35.019-7.36h-.065l34.533-8.528h-.065l34.046-9.76-.065.032,33.43-11.025h-.065l32.847-12.354-.065.032,32.166-13.781-.065.032,31.55-15.24-.065.032,30.771-16.8-.032.032,30.058-18.385-.065.065,29.28-20.1-.032.032,28.437-21.79-.065.032,27.626-23.638-.032.065,26.686-25.519,1.686,1.751-26.718,25.551-27.691,23.67-28.469,21.822-29.345,20.136L1868.251,148l-30.8,16.829L1805.832,180.1l-32.2,13.781-32.879,12.386-33.463,11.025-34.079,9.792-34.533,8.528L1603.6,243l-35.506,6.323-35.927,5.318-36.316,4.377-36.641,3.534-37,2.724-37.224,1.946-37.484,1.265-75.583.875-76.1-1.005-76.329-2.367-76.3-3.178-75.972-3.437h.032l-75.389-3.145-74.448-2.367-73.249-.973-36.089.162h.032l-35.732.713h.032l-35.279,1.3h.032l-34.76,2.01h.032l-34.306,2.691h.032l-33.722,3.5h.032l-33.139,4.41h.032l-32.522,5.35.032-.032L436.97,279.35h.065l-31.161,7.393h.032l-30.48,8.56h.065l-29.669,9.76.032-.032-28.891,11.057.065-.032-28.08,12.386.065-.032L261.841,342.19l.065-.032-26.3,15.3.065-.032-25.357,16.8.065-.065L186,392.612l.065-.065-23.346,20.136.065-.065L140.506,434.44l.065-.033L119.3,458.046l.065-.065L99.294,483.532l.032-.065-18.9,27.464.032-.065L62.685,540.373l.032-.032-16.5,31.517.032-.065L30.974,605.548l.032-.065L17.063,641.41v-.065L4.482,679.575Z" transform="translate(-2.18 -36.68)" fill="url(#linear-gradient)"/>
              </g>
              <g id="Group_39816" data-name="Group 39816" transform="translate(7.458 89.234)">
                <path id="Path_34336" data-name="Path 34336" d="M2.3,689.935l11.057-38.748,12.549-36.478,13.943-34.273,15.3-32.133L71.82,518.276,89.783,490.26l19.2-26.037,20.46-24.189,21.628-22.309,22.762-20.59,23.865-18.9,24.935-17.283,25.94-15.726,26.945-14.235,27.853-12.808L332.162,306.7l29.6-10.182,30.447-8.949,31.258-7.782,31.971-6.744,32.652-5.707L521.46,262.6l33.982-3.891,34.565-3.08,35.084-2.335,35.635-1.621,36.089-1.07,36.543-.486,74.157.357,75.421,1.751,76.361,2.594,77.01,2.853,77.3,2.594,77.334,1.816h-.032l77.042.486h-.032l76.394-1.362h-.032l37.873-1.556,37.613-2.2h-.033l37.289-2.918h-.032l36.932-3.729h-.032l36.576-4.637h-.033l36.122-5.545h-.032l35.668-6.517h-.032l35.116-7.652-.033.032,34.6-8.755h-.032l34.047-9.955h-.065l33.4-11.219-.065.032,32.717-12.549h-.065l32.036-13.975h-.033l31.29-15.434-.032.032,30.479-16.991-.065.032,29.7-18.58-.065.032,28.826-20.266-.065.032,27.983-21.984-.065.032,26.978-23.833-.065.065,26.037-25.681,1.686,1.719-26.037,25.713-27.01,23.865-28.015,22.049-28.859,20.3-29.766,18.612L1836.173,156.8l-31.355,15.467-32.069,14.04-32.782,12.549-33.43,11.252-34.079,9.955-34.63,8.755-35.182,7.652-35.7,6.55-36.154,5.545-36.608,4.637-36.932,3.761-37.322,2.918-37.646,2.2-37.905,1.556L1267.953,265l-77.075-.486-77.334-1.816-77.3-2.594L959.2,257.253l-76.329-2.594-75.389-1.751-74.124-.357-36.478.486-36.057,1.07-35.6,1.621h.032L590.2,258.063h.032l-34.565,3.08h.032L521.752,265h.032l-33.3,4.734h.032l-32.62,5.707h.032l-31.939,6.712h.065l-31.225,7.782h.032l-30.382,8.917.065-.032L332.972,309l.065-.032-28.761,11.479.065-.032-27.788,12.776.065-.032-26.881,14.2.065-.032-25.908,15.694.065-.065-24.838,17.25.065-.032-23.8,18.839.065-.065-22.73,20.558.065-.065L131.223,441.72l.032-.065-20.4,24.124.065-.065L91.761,491.687l.065-.065L73.895,519.573l.032-.065L57.293,549.469l.032-.065L42.053,581.44l.032-.065L28.143,615.584l.032-.065L15.659,651.965l.032-.065L4.667,690.616Z" transform="translate(-2.3 -27.52)" fill="url(#linear-gradient)"/>
              </g>
              <g id="Group_39817" data-name="Group 39817" transform="translate(7.912 59.468)">
                <path id="Path_34337" data-name="Path 34337" d="M2.44,701.118l9.5-39.235,11.057-37,12.581-34.76,14.137-32.587,15.5-30.512,16.958-28.469,18.288-26.524,19.617-24.611L140.96,424.6l22.114-20.979,23.314-19.358,24.449-17.7,25.584-16.148,26.556-14.624L290.6,322.553l28.631-11.868,29.474-10.571,30.415-9.338,31.258-8.171,32.036-7.1,32.782-6.1,33.56-5.123,34.144-4.248,34.825-3.4,35.408-2.659L649.064,252l36.478-1.362,36.9-.843,75.032-.227,76.394,1.1,77.367,1.978,78.015,2.27,78.372,2.01h-.032l78.339,1.3h77.918l77.3-1.848h-.032l38.294-1.816h-.032l37.97-2.432h-.032l37.678-3.21h-.032l37.256-3.956h-.032l36.8-4.864h-.032l36.349-5.772h-.032l35.83-6.777-.032.032,35.311-7.847h-.032l34.663-8.949h-.032l34.047-10.182-.065.032,33.365-11.446h-.065l32.652-12.776h-.065l31.874-14.17-.033.032,31.063-15.661-.065.032,30.22-17.185-.065.032,29.345-18.774-.065.032,28.372-20.493-.065.065,27.4-22.179-.032.065,26.362-24.027-.065.065,25.324-25.908,1.751,1.719-25.356,25.908-26.427,24.059-27.432,22.211-28.437,20.493-29.377,18.839-30.285,17.218-31.1,15.661-31.939,14.2-32.685,12.808-33.4,11.478-34.079,10.182L1636.93,222.1l-35.376,7.847-35.862,6.777-36.349,5.772-36.867,4.9-37.289,3.956-37.678,3.21-37.97,2.432-38.327,1.816-77.3,1.848H1185.9l-78.339-1.3-78.372-2.01-78.015-2.27L873.8,253.1,797.441,252h.033l-75,.227h.032l-36.9.843-36.414,1.362-35.927,1.978h.032l-35.376,2.659h.032l-34.792,3.4h.033l-34.144,4.248.032-.032-33.5,5.123h.032l-32.749,6.063h.032l-31.971,7.1h.032l-31.193,8.139h.032l-30.35,9.338.065-.032-29.442,10.538h.065l-28.567,11.835.065-.032-27.561,13.2.065-.032L237.62,352.514l.065-.032L212.2,368.6l.032-.032L187.847,386.2l.065-.032-23.249,19.293.065-.065-22.049,20.947.032-.065-20.817,22.763.065-.065-19.585,24.546.065-.065L84.216,499.887l.032-.065-16.926,28.4.065-.065-15.5,30.447.032-.065-14.073,32.49.032-.065L25.267,625.664l.032-.065L14.275,662.564V662.5L4.807,701.7Z" transform="translate(-2.44 -18.34)" fill="url(#linear-gradient)"/>
              </g>
              <g id="Group_39818" data-name="Group 39818" transform="translate(8.333 29.766)">
                <path id="Path_34338" data-name="Path 34338" d="M2.57,712.256,6.331,692.12l4.15-19.65,9.63-37.484,11.252-35.214,12.905-33.106L58.633,535.7l15.953-28.923,17.347-27.01L110.708,454.7l20.168-23.216,21.465-21.5L175.1,390.273,199.1,372.148l25.1-16.6,26.329-15.013,27.334-13.651L306.3,314.625l29.377-10.96,30.35-9.7,31.29-8.593,32.1-7.458,32.912-6.453,33.657-5.48,34.4-4.572,35.052-3.761,35.733-3.016,36.251-2.335,36.8-1.686,37.321-1.135,75.907-.908,77.3.486,78.4,1.362,79.053,1.751,79.377,1.492h-.032l79.344.746,78.923-.551h-.032l78.177-2.367h-.032l38.683-2.075h-.032l38.359-2.691,37.97-3.4,37.581-4.215h-.032l37.062-5.091-.032.032,36.608-6h-.032l35.992-7-.065.032L1635.471,213h-.065L1670.2,203.8h-.065l34.047-10.376-.032.032,33.333-11.673h-.033L1770,168.809l-.032.032,31.679-14.4-.065.032,30.869-15.888-.065.032,29.9-17.347-.032.032,28.956-19-.065.032,27.951-20.655-.065.065,26.881-22.406-.065.032,25.746-24.189-.032.032L1996.137,9.18l1.783,1.654-24.611,26.1L1947.5,61.19l-26.945,22.438-27.983,20.687-29.021,19.066-29.961,17.38-30.934,15.888-31.712,14.4-32.62,13-33.4,11.706-34.112,10.376-34.792,9.241-35.506,8.074-36.024,7-36.608,6-37.127,5.058-37.613,4.248-38,3.4-38.391,2.691-38.683,2.075-78.209,2.367-78.955.551-79.377-.746-79.377-1.492L943.1,252.855l-78.372-1.362h.032l-77.3-.486h.032l-75.875.908-37.289,1.135h.032l-36.8,1.686h.032l-36.251,2.335h.032l-35.7,3.016.033-.032-35.019,3.794.032-.032-34.371,4.572h.032l-33.657,5.48h.032L429.9,280.32l.032-.032-32.069,7.458.065-.032-31.225,8.593.032-.032-30.285,9.7h.065L307.172,316.9h.065l-28.372,12.192.065-.032-27.3,13.619.065-.032-26.232,15.013.065-.032-25.065,16.537.065-.065L176.6,392.187l.065-.065-22.7,19.682.065-.065-21.4,21.433.065-.065-20.1,23.152.065-.065-18.742,25,.032-.065L76.629,508.042l.065-.065L60.773,536.835l.032-.065-14.332,30.9.032-.065-12.84,33.009v-.1L22.447,635.7l.032-.065-9.63,37.419.032-.032L8.7,692.606v-.032L4.969,712.71Z" transform="translate(-2.57 -9.18)" fill="url(#linear-gradient)"/>
              </g>
              <g id="Group_39819" data-name="Group 39819" transform="translate(8.755)">
                <path id="Path_34339" data-name="Path 34339" d="M2.7,723.439l2.983-20.428,3.4-19.844,8.171-37.97,9.89-35.733,11.641-33.528,13.294-31.485,14.883-29.41,16.44-27.432,17.964-25.551,19.423-23.67,20.817-21.919,22.211-20.2L187.3,377.721l24.74-16.958L238.01,345.3l27.107-14.04,28.275-12.646,29.248-11.381,30.285-10.117,31.258-8.885,32.166-7.879,33.041-6.809,33.852-5.837,34.6-4.929,35.311-4.15,35.992-3.34,36.608-2.659,37.192-2.01,37.71-1.492L777.4,247.6l78.274-.1,79.345.778,80.123,1.135,80.382.94,80.349.162,79.9-1.038h-.032l79.052-2.886v.032l39.073-2.3h-.032l38.748-2.951h-.032l38.327-3.632h-.032l37.873-4.475h-.032l37.354-5.318,36.8-6.226h-.032l36.187-7.2-.033.032,35.57-8.3h-.032l34.857-9.436h-.065L1703.4,186.25h-.065l33.333-11.868-.065.032,32.458-13.2h-.032l31.55-14.559h-.065l30.609-16.051-.065.032,29.6-17.607-.032.065L1889.2,93.9l-.065.032,27.5-20.817-.065.032,26.362-22.6-.065.032L1968.024,26.2l-.065.065L1991.889,0l1.783,1.654-23.93,26.264-25.227,24.449-26.394,22.665-27.529,20.849-28.631,19.228-29.669,17.639-30.674,16.083L1770,163.455l-32.49,13.229-33.366,11.868L1670,199.156l-34.889,9.468-35.635,8.3-36.219,7.2-36.835,6.226-37.419,5.35-37.873,4.442-38.359,3.664-38.748,2.951-39.1,2.27-79.085,2.886-79.961,1.038-80.349-.162-80.415-.94-80.123-1.135h.033l-79.377-.778h.032l-78.274.1h.032l-76.718,1.524h.032l-37.711,1.492h.032l-37.159,2.01-36.576,2.659h.032l-35.96,3.34-35.279,4.118h.032L483.6,270.1h.032l-33.82,5.836.032-.032-32.977,6.809h.032l-32.1,7.847h.032l-31.193,8.884h.032l-30.22,10.084h.065L294.3,320.847l.032-.032-28.177,12.646.065-.032-27.075,14.008.065-.032-25.875,15.434.065-.065L188.723,379.7l.065-.032-23.443,18.482.065-.065L143.263,418.22l.065-.065-20.752,21.887.065-.065-19.358,23.573.032-.065-17.9,25.486.032-.065L69.074,516.242l.032-.065L54.289,545.522l.032-.065L41.027,576.844l.032-.1L29.483,610.21v-.065l-9.89,35.668.032-.065-8.171,37.905v-.032L8.083,703.4v-.032L5.1,723.8Z" transform="translate(-2.7)" fill="url(#linear-gradient)"/>
              </g>
            </g>
          </g>
        </g>
        <g id="b-2" data-name="b" transform="translate(791.265 2774.21) rotate(31)" opacity="0.45">
          <g id="c-2" data-name="c">
            <g id="Group_39820-2" data-name="Group 39820">
              <g id="Group_39798-2" data-name="Group 39798" transform="translate(0)">
                <path id="Path_34318-2" data-name="Path 34318" d="M0,1.946,39.234,31.615,77.82,59.176l37.97,25.486,37.451,23.443,36.867,21.5,36.349,19.617,35.83,17.769,35.279,16.018,34.857,14.332,34.371,12.711,33.917,11.154,33.56,9.63,33.074,8.236,32.782,6.842,32.36,5.545,32.036,4.312,31.712,3.145,31.388,2.075L658.751,262l30.869.065,30.577-.908,30.415-1.686,30.123-2.5,30.026-3.145,59.435-8.268,58.981-10.279,58.625-11.8,58.365-12.776,116.86-26.459h-.032l58.722-12.613h-.032l59.176-11.511h-.032l59.792-9.89-.032.032,60.505-7.75h-.032l30.609-2.918h-.032l30.8-2.14h-.032l31.1-1.329h-.032l31.42-.519h-.032l31.647.422h-.033l32.036,1.459h-.032l32.36,2.5h-.065l32.717,3.6h-.033l33.139,4.8h-.065l33.528,6.1H1720l33.917,7.425-.032-.032,34.371,8.787h-.033l34.857,10.279-.033-.032,35.279,11.77h-.032l35.83,13.359h-.033l36.284,15.013-.032-.032,36.9,16.764-.032-.032,37.451,18.547-.033-.032,38,20.363h-.032l38.618,22.276,1.2-2.108-38.618-22.309-38.035-20.363-37.516-18.547-36.9-16.764-36.349-15.045-35.862-13.392-35.344-11.77-34.89-10.279-34.435-8.787-33.949-7.425-33.56-6.128-33.171-4.8-32.749-3.632-32.393-2.5-32.069-1.459-31.712-.422-31.42.519-31.161,1.329-30.836,2.172-30.642,2.886-60.538,7.75-59.824,9.89L1221.2,169.26l-58.722,12.613-116.828,26.459h0l-58.365,12.776h.032l-58.592,11.8.032-.032-58.949,10.279h.033l-59.4,8.236h.032l-29.961,3.145h.032l-30.123,2.5h.033l-30.35,1.686h.032l-30.577.908h.032l-30.8-.065h.032l-31.1-1.005h.065l-31.355-2.043h.032l-31.679-3.145h.032l-31.971-4.313h.032l-32.328-5.545.065.032-32.75-6.874.065.032-33.041-8.2h.033l-33.5-9.63h.032l-33.884-11.122h.032L333.266,195.07h.032l-34.792-14.3h.032l-35.246-15.986.032.032L227.56,147.049h.032l-36.316-19.585h.032l-36.835-21.433h.065L117.12,82.587l.032.032L79.182,57.166h.032l-38.554-27.5h0L1.459,0Z" fill="url(#linear-gradient-23)"/>
              </g>
              <g id="Group_39799-2" data-name="Group 39799" transform="translate(0.422 9.468)">
                <path id="Path_34319-2" data-name="Path 34319" d="M0,1.913l37.613,30.22L74.773,60.149l36.705,25.973,36.154,23.93L183.4,132.036l35.343,20.071,34.89,18.223L288.1,186.8l34.111,14.753,33.722,13.2,33.4,11.543,33.041,10.052,32.717,8.658,32.425,7.263,32.133,5.966,31.842,4.7,31.582,3.534,31.355,2.432,31.1,1.394,30.934.389,30.739-.486,30.545-1.3,30.382-2.172,30.253-2.853,60.051-7.523,59.76-9.63,59.435-11.154,59.338-12.192,118.871-25.259,59.76-12.062h0l60.149-10.992h-.032l60.732-9.371h-.032l61.413-7.231h-.032l31-2.659h-.032l31.226-1.881h-.033l31.42-1.135h-.032l31.679-.259h-.032l32,.648h-.032l32.231,1.686h-.032l32.522,2.691h-.032l32.879,3.891h-.065l33.2,5.026-.065-.032,33.528,6.323h-.032l33.917,7.62-.065-.032,34.273,9.014h-.032l34.7,10.441h-.033l35.084,11.965h-.032l35.506,13.554h-.033l35.992,15.207-.065-.032,36.478,16.926h-.065l36.9,18.709h-.032l37.386,20.558-.032-.032,37.938,22.5,1.232-2.108-37.938-22.5-37.418-20.558-36.932-18.742L1929.3,238.293l-36.025-15.207L1857.737,209.5l-35.149-12-34.727-10.473-34.306-9.014-33.982-7.62-33.528-6.323-33.236-5.058-32.912-3.859-32.555-2.724-32.3-1.686-32.036-.649-31.712.259-31.452,1.135-31.258,1.881-31.031,2.691-61.446,7.231-60.8,9.371-60.181,10.992-59.792,12.062L1036.472,221.01h0L977.134,233.17h.032l-59.435,11.187.032-.032-59.695,9.63.032-.032-60.019,7.555h.032l-30.22,2.821h.032l-30.35,2.172h.032l-30.512,1.3h.032l-30.707.486h.065l-30.9-.389h.032l-31.063-1.394h.065l-31.355-2.432h.032L551.78,260.5h.032L520,255.835h.065l-32.1-5.966h.065l-32.393-7.231h.032l-32.685-8.625h.065l-33.009-10.052.065.032L356.775,212.45h.032l-33.69-13.132h.032L289.071,184.6h.032l-34.4-16.472.032.033-34.857-18.191.032.032-35.279-20.071h.032l-35.733-21.919.032.032L112.807,84.079l.032.033L76.2,58.171l.032.032L39.1,30.188l.032.032L1.524,0Z" fill="url(#linear-gradient-23)"/>
              </g>
              <g id="Group_39800-2" data-name="Group 39800" transform="translate(0.843 18.936)">
                <path id="Path_34320-2" data-name="Path 34320" d="M0,1.849,36.057,32.555,71.789,61.089,107.1,87.548l34.954,24.416,34.63,22.438,34.306,20.525,33.949,18.709L278.63,190.6,312,205.8,345.1,219.357l32.782,12.062,32.587,10.473,32.328,9.047,32.069,7.685,31.906,6.323,31.647,5.123,31.485,3.923,31.323,2.853,31.1,1.751,31,.811,30.8-.162,30.739-1.005,30.545-1.751,30.544-2.5,60.7-6.874,60.473-8.949,60.343-10.538,60.278-11.576,120.881-24.124v.032l60.8-11.543h-.032l61.186-10.408h-.032l61.705-8.852h-.065l62.321-6.712h-.032l31.388-2.4h-.032l31.582-1.719h-.032l31.809-.843h-.033l32-.032h-.033l32.231.94h-.032l32.458,1.848h-.032l32.75,2.951h-.065l32.976,4.053h-.033l33.3,5.285h-.032l33.56,6.485h-.065l33.884,7.847-.033-.032,34.209,9.241-.065-.032,34.5,10.668-.032-.032,34.857,12.224-.032-.033,35.214,13.781-.032-.032,35.635,15.4h-.032l35.96,17.121-.032-.032,36.349,18.936-.032-.032,36.835,20.785-.032-.032,37.191,22.665,1.265-2.075L2036.5,314.687,1999.662,293.9l-36.413-18.936-36.025-17.153-35.668-15.434L1856.311,228.6l-34.922-12.224-34.533-10.668-34.241-9.209-33.917-7.879-33.625-6.485-33.333-5.285-33.009-4.053-32.782-2.951-32.49-1.881-32.263-.94-32.069.033-31.809.875-31.647,1.686-31.388,2.4-62.354,6.745-61.738,8.852-61.219,10.409-60.8,11.543L1027.3,233.656h0l-60.278,11.576h.032L906.739,255.77l.032-.032L846.3,264.687h.065L785.7,271.561h.032l-30.48,2.5h.032l-30.545,1.751h.032l-30.707,1.005h.032l-30.772.162h.032l-30.934-.811h.032l-31.1-1.751h.065l-31.29-2.821h.033l-31.42-3.923h.032L507.2,262.547l.033.032-31.874-6.355.065.032-32.036-7.685h.065l-32.3-9.014h.032l-32.522-10.473.065.032-32.782-12.03.065.032-33.074-13.554H313l-33.333-15.175.032.032-33.657-16.958.065.032L212.191,152.82h.032L177.95,132.328h.032l-34.565-22.406.032.032L108.527,85.57h.032L73.249,59.144l.032.032-35.7-28.5.032.032L1.556,0Z" fill="url(#linear-gradient-23)"/>
              </g>
              <g id="Group_39801-2" data-name="Group 39801" transform="translate(1.232 28.437)">
                <path id="Path_34321-2" data-name="Path 34321" d="M0,1.784,34.5,32.977,68.774,62.03l34.014,26.945,33.722,24.9L170.038,136.8l33.236,20.979,33.074,19.163,32.847,17.38,32.62,15.661,32.458,14.04L366.5,236.477l32.133,10.895,31.906,9.468,31.744,8.074,31.647,6.777,31.517,5.48,31.323,4.345,31.258,3.178,31.128,2.173L650.223,288l30.934.227,30.9-.616,30.771-1.394,30.772-2.14,61.316-6.226,61.251-8.3,61.186-9.89,61.251-10.96L1141.5,225.744h-.032l61.867-10.927h-.032l62.224-9.922-.032.033,62.613-8.333h-.032l63.164-6.193h-.033l31.809-2.173h-.032l31.939-1.427h-.032l32.2-.648h-.032l32.3.195h-.032l32.49,1.135h-.032l32.685,2.14h-.033l32.912,3.178-.032-.032,33.139,4.313-.033-.032,33.333,5.512h-.032l33.56,6.68h-.032l33.852,8.041h-.065l34.144,9.436h-.065l34.338,10.895-.032-.032,34.662,12.386-.032-.032,34.922,13.975-.065-.032,35.279,15.629h-.033l35.506,17.283h-.032l35.862,19.131-.032-.032,36.154,20.947-.033-.032,36.543,22.86,1.265-2.075-36.544-22.86-36.186-20.947-35.895-19.163L1925.182,277.3l-35.311-15.629-34.954-14.008-34.7-12.386-34.4-10.895-34.144-9.436-33.884-8.074-33.625-6.712-33.4-5.512-33.171-4.28-32.944-3.178-32.749-2.14-32.523-1.135-32.36-.195-32.2.648-31.971,1.427-31.809,2.173-63.229,6.226-62.646,8.3-62.256,9.922-61.867,10.927L1018.152,246.3h0l-61.219,10.96h.033l-61.154,9.89.033-.032-61.219,8.3h.032l-61.284,6.226h.032l-30.707,2.14L711.96,285.18h.032l-30.869.616h.032l-30.9-.227h.032l-31-1.135h.032l-31.1-2.14h.033l-31.226-3.21h.065l-31.29-4.312h.032l-31.452-5.48h.032l-31.582-6.744.032.032-31.712-8.074h.065l-31.874-9.468.032.032-32.068-10.895.065.032-32.231-12.451.065.032-32.393-14.008h.032l-32.587-15.629h.032L237.482,174.8h.065l-33.041-19.1h.065l-33.236-20.947.032.032L137.9,111.9l.032.032-33.69-24.9h.032L70.3,60.117l.032.032L36.089,31.161h.032L1.621,0Z" transform="translate(0 0)" fill="url(#linear-gradient-23)"/>
              </g>
              <g id="Group_39802-2" data-name="Group 39802" transform="translate(1.654 37.905)">
                <path id="Path_34322-2" data-name="Path 34322" d="M0,1.751,32.944,33.5,65.758,63.035l32.652,27.4,32.555,25.357,32.36,23.379,32.231,21.5,32.133,19.617,32.036,17.834,31.906,16.115,31.809,14.429,31.679,12.905,31.615,11.316,31.485,9.89,31.453,8.5,31.388,7.166,31.29,5.9,31.258,4.669,31.193,3.632,31.161,2.5,31.1,1.556,31.063.584,31.031-.259,31.031-1.07,30.966-1.816,31-2.464,30.966-3.048,62.029-7.652,62.062-9.274,62.159-10.311,124.967-21.757h-.032l62.872-10.409h0l63.2-9.371h-.032l63.618-7.782h-.032l64.04-5.707h-.032l32.2-1.913h0l32.328-1.2h-.032l32.49-.389h-.032l32.587.422h-.032l32.782,1.394h-.032l32.912,2.3h-.032l33.106,3.437h-.032l33.268,4.507-.032-.032,33.43,5.739h-.032l33.625,6.939h-.065l33.819,8.236h-.032l34.014,9.63h-.065l34.241,11.057-.065-.032,34.4,12.613h-.032l34.63,14.17-.064-.032,34.89,15.823-.065-.032,35.117,17.542-.033-.032,35.344,19.293-.032-.032L2027.97,356.9l-.065-.032,35.8,23.087,1.329-2.075-35.83-23.054-35.6-21.141-35.344-19.325-35.181-17.542L1888.185,281l-34.7-14.2-34.4-12.613-34.273-11.089-34.047-9.63-33.884-8.268-33.657-6.971-33.463-5.739-33.3-4.507-33.171-3.4-32.944-2.335-32.814-1.394-32.652-.422-32.523.389-32.36,1.2-32.231,1.913-64.072,5.707-63.683,7.782-63.229,9.371-62.873,10.441L1008.943,258.98h.032l-62.159,10.311h0l-62.029,9.274h.032l-61.965,7.62h.032l-30.966,3.048h.032L760.987,291.7l-30.934,1.816h.032l-31,1.07h.032l-31,.259h.032l-31.031-.584h.032l-31.063-1.524h.032L575,290.206h.065l-31.161-3.6h.032l-31.193-4.669h.065l-31.29-5.9h.065L450.256,268.9h.033L418.9,260.439h.032l-31.452-9.89.032.032-31.55-11.316.032.032-31.615-12.873.032.032-31.777-14.429.065.032-31.874-16.115.065.032-32-17.8h.032l-32.069-19.585.032.032-32.2-21.465.032.033-32.328-23.346h.032L99.9,88.521l.032.033L67.347,61.187h.032L34.6,31.68l.032.032L1.686,0Z" transform="translate(0 0)" fill="url(#linear-gradient-23)"/>
              </g>
              <g id="Group_39803-2" data-name="Group 39803" transform="translate(2.043 47.438)">
                <path id="Path_34323-2" data-name="Path 34323" d="M0,1.686,31.388,33.917,62.743,63.91,94.066,91.828,125.388,117.7l31.225,23.833,31.258,21.952,31.193,20.071,31.193,18.288,31.193,16.537L312.611,233.3l31.128,13.294,31.128,11.77,31.161,10.279,31.063,8.884,31.161,7.587,31.128,6.291,31.128,5.123,31.128,3.956L592.8,303.37l31.161,1.913,31.161.94,31.226.1,31.225-.713,31.226-1.427,31.29-2.14,31.323-2.691,62.775-7,62.872-8.658,63.164-9.7L1127.2,253.371h0l63.878-9.825h0l64.2-8.82-.032.032,64.591-7.328h-.032l64.915-5.188h-.032l32.587-1.654h0l32.684-.973h-.032l32.847-.162h-.032l32.911.681h-.032l33.041,1.589h-.032l33.171,2.626h-.032l33.268,3.6H1615l33.4,4.734h-.065l33.528,5.934h-.033l33.658,7.166-.033-.032,33.787,8.463-.032-.032,33.917,9.89-.032-.032,34.014,11.284h-.032l34.176,12.776h-.032l34.338,14.364-.032-.032,34.5,16.018-.032-.032,34.63,17.737-.033-.032,34.792,19.52-.032-.032,34.954,21.336-.032-.032,35.116,23.217,1.33-2.01L2025.6,374.868,1990.584,353.5l-34.825-19.488-34.695-17.769-34.533-16.018-34.4-14.4-34.241-12.808-34.079-11.284-33.95-9.89-33.819-8.463-33.722-7.166-33.56-5.934-33.431-4.767-33.333-3.6-33.2-2.594-33.073-1.621-32.944-.681-32.879.162-32.717.973-32.652,1.654-64.948,5.22-64.624,7.3-64.234,8.787-63.91,9.857L999.831,271.594h0l-63.132,9.7h.032l-62.872,8.658h.033l-62.743,6.971h.032l-31.29,2.691-31.225,2.14-31.193,1.427-31.161.713h.032l-31.193-.1h.033l-31.128-.94h.032l-31.128-1.881h.032l-31.1-2.918.032.032-31.1-3.956h.032L499.8,289.006l.032.032-31.1-6.29h.065l-31.1-7.588.032.032-31.031-8.885.032.032-31.1-10.279h.032l-31.063-11.738h.032l-31.063-13.262.032.032-31.1-14.883.032.032-31.128-16.537.032.032-31.128-18.255.032.032-31.128-20.071.032.032L158.04,139.558l.032.032-31.193-23.8.032.032L95.654,89.948l.032.032L64.4,62.127h.032L33.106,32.166l.032.032L1.751,0Z" fill="url(#linear-gradient-23)"/>
              </g>
              <g id="Group_39804-2" data-name="Group 39804" transform="translate(2.464 56.906)">
                <path id="Path_34324-2" data-name="Path 34324" d="M0,1.654,29.831,34.338l29.9,30.512L89.721,93.288l30.058,26.329L149.9,143.968l30.22,22.373,30.285,20.525,30.35,18.774,30.415,16.991,30.512,15.337,30.642,13.683,30.642,12.192,30.707,10.733,30.772,9.338,30.9,7.944,30.934,6.68,31.031,5.512,31.063,4.345,31.161,3.275,31.258,2.3,31.258,1.3,31.42.421,31.388-.324,31.517-1.135,31.615-1.751,31.647-2.4,63.521-6.323,63.748-7.977,64.1-9.111,128.955-19.455,64.948-9.306h-.032l65.24-8.236h-.032l65.531-6.777h-.032l65.823-4.7h-.032l33.009-1.394h-.032l33.106-.746h-.032l33.139.13h-.033l33.268.875h-.032l33.3,1.848h-.032L1580.4,241.7h-.032l33.5,3.859h-.065l33.528,4.961-.033-.032,33.593,6.128h-.065l33.722,7.36h-.033l33.722,8.69h-.032l33.82,10.052-.032-.032,33.884,11.511h-.032l33.949,13-.032-.032,34.079,14.559h-.065l34.111,16.213-.032-.032,34.176,17.931L1952,355.8l34.306,19.65h-.065l34.306,21.53-.033-.032,34.435,23.443,1.362-2.043-34.436-23.411-34.338-21.563L1953.2,353.694l-34.241-17.931-34.144-16.245L1850.7,304.927l-34.014-13.035-33.949-11.511-33.852-10.052-33.787-8.722-33.755-7.361-33.625-6.128-33.56-4.993-33.528-3.826-33.431-2.821-33.3-1.848-33.3-.875-33.2-.13-33.106.746-33.041,1.394-65.856,4.7-65.564,6.777-65.239,8.268-64.98,9.306L990.622,284.239h.033l-64.072,9.111h.032l-63.748,7.977h.033l-63.489,6.323h0l-31.615,2.4h.032l-31.55,1.751h0l-31.485,1.135h.032l-31.388.324h.032l-31.355-.421h.032l-31.258-1.3h.065l-31.225-2.3h.065L548.667,306h.032l-31.031-4.377.032.032-30.966-5.512h.032l-30.9-6.647h.065l-30.836-7.944.032.032-30.707-9.338.032.032-30.674-10.7h.065l-30.609-12.159.032.032-30.545-13.683h.032l-30.447-15.3.032.033-30.35-16.958h.032L211.7,184.824h.032l-30.22-20.46.065.032-30.22-22.373.032.032L121.3,117.736l.065.032-30.026-26.3.032.032L61.446,63.132h.032l-29.9-30.48.032.032L1.783,0Z" transform="translate(0 0)" fill="url(#linear-gradient-23)"/>
              </g>
              <g id="Group_39805-2" data-name="Group 39805" transform="translate(2.886 66.374)">
                <path id="Path_34325-2" data-name="Path 34325" d="M0,1.589,28.275,34.825l28.437,31L85.376,94.714,114.2,121.53l29.021,24.838L172.4,169.195l29.377,20.979L231.289,209.4l29.734,17.445,29.831,15.759,30.058,14.17L351.1,269.356l30.318,11.154,30.447,9.728,30.674,8.366,30.739,7.134,30.9,5.837,31,4.767,31.193,3.632,31.29,2.659,31.388,1.686,31.55.811,31.647-.032,31.744-.746,31.906-1.394,31.971-2.075,64.267-5.674,64.656-7.361,65.012-8.5,65.369-9.111,65.661-9.176,65.985-8.722h-.032L1245,264.59h-.032l66.5-6.258h-.065l66.731-4.15h-.032l33.4-1.167h-.032l33.5-.486h-.032l33.528.324h-.032l33.528,1.167-.032-.032,33.593,2.075h-.033l33.593,3.048h-.033l33.657,4.053h-.032l33.657,5.188h-.065l33.722,6.355-.032-.033,33.722,7.587h-.065l33.722,8.885h-.032l33.722,10.279h-.032l33.755,11.673h-.065l33.722,13.2-.033-.032,33.755,14.786-.032-.032,33.754,16.407h-.032l33.722,18.126-.065-.032,33.787,19.844-.065-.032,33.722,21.725-.032-.032,33.722,23.638,1.394-2.01-33.755-23.638-33.755-21.725L1950.7,373.409l-33.755-18.158-33.819-16.44-33.82-14.786L1815.552,310.8l-33.819-11.706-33.755-10.279-33.754-8.917-33.787-7.587-33.722-6.355-33.69-5.188-33.722-4.086-33.625-3.048-33.625-2.043-33.56-1.167-33.56-.324-33.5.486-33.43,1.167-66.764,4.183-66.5,6.258-66.245,7.75-65.985,8.722-65.661,9.176-65.369,9.112h0l-64.98,8.5h0l-64.624,7.328h.033l-64.267,5.674h.032l-31.939,2.075h.032l-31.874,1.394h.032l-31.744.746h.032L660.6,322.7h.033l-31.517-.811h.032L597.824,320.2h.032L566.6,317.573h.032l-31.161-3.632h.065l-30.966-4.767h.032l-30.836-5.837h.032l-30.707-7.1.065.032L412.546,287.9l.065.032-30.447-9.728.065.033-30.285-11.154.065.032-30.123-12.581h.032l-29.993-14.1.032.032L262.19,224.707l.032.032-29.669-17.445.065.032-29.475-19.163.032.032-29.312-20.947.032.032-29.15-22.827.065.032-28.988-24.805.032.032L87.062,92.963l.032.032L58.463,64.137l.032.032-28.4-31,.032.065L1.848,0Z" transform="translate(0 0)" fill="url(#linear-gradient-23)"/>
              </g>
              <g id="Group_39806-2" data-name="Group 39806" transform="translate(3.307 75.875)">
                <path id="Path_34326-2" data-name="Path 34326" d="M0,1.524,26.654,35.246,53.7,66.731,81,96.141l27.626,27.27,27.886,25.324,28.178,23.281,28.4,21.465,28.729,19.65L250.777,231l29.215,16.245,29.442,14.591,29.7,13.035L369.1,286.38l30.156,10.149,30.35,8.787,30.609,7.49,30.772,6.258,30.966,5.156,31.193,3.988,31.355,3.016,31.517,2.043,31.712,1.2,31.874.324,31.971-.357,32.166-1.1,32.328-1.719,65.045-5.026,65.5-6.745,65.985-7.879,66.342-8.5,66.731-8.593h-.032l66.99-8.2h0l67.25-7.2h-.032l67.444-5.674h-.032l67.574-3.729h-.032l33.82-.94h-.032l33.852-.195h-.032l33.884.551h-.032l33.852,1.394h-.032l33.852,2.3h-.032l33.82,3.243h-.032l33.852,4.313h-.065l33.787,5.415-.032-.032,33.787,6.582h-.033l33.722,7.782-.032-.032,33.657,9.144h-.032l33.657,10.441-.032-.032,33.593,11.932-.033-.032L1847,345.328l-.065-.032,33.43,14.98-.032-.032,33.366,16.634-.032-.032,33.3,18.32-.032-.032,33.236,20.071-.032-.032,33.106,21.887-.032-.032,32.976,23.8,1.427-1.945-33.008-23.833-33.171-21.919-33.268-20.071-33.366-18.353-33.4-16.634-33.5-15.013-33.56-13.424L1780.695,317.7l-33.69-10.441-33.722-9.144L1679.5,290.3l-33.819-6.55-33.82-5.415-33.884-4.313-33.852-3.275-33.917-2.3-33.884-1.394-33.884-.551-33.884.194-33.819.94-67.639,3.729-67.477,5.674-67.25,7.231-67.023,8.171-66.731,8.625-66.342,8.5h.032l-65.953,7.847-65.467,6.744h.032L775.9,329.181h.033l-32.3,1.719L711.506,332h.032l-31.971.357h.032l-31.842-.324h.032l-31.647-1.167h.032l-31.485-2.075h.032l-31.355-2.983h.065l-31.128-4.021.032.032L491.372,316.7h.065l-30.739-6.29.065.032-30.545-7.49h.065l-30.35-8.755.065.032L369.874,284.11h.065l-29.9-11.511.065.032-29.669-13h.065l-29.41-14.559.065.032L251.976,228.89l.065.032-28.923-17.834.032.032L194.486,191.5l.065.032-28.4-21.433.065.032-28.145-23.281.065.065-27.853-25.292.032.033L82.749,94.422l.032.033L55.512,65.11l.032.032L28.534,33.658l.032.065L1.881,0Z" transform="translate(0 0)" fill="url(#linear-gradient-23)"/>
              </g>
              <g id="Group_39807-2" data-name="Group 39807" transform="translate(3.729 85.376)">
                <path id="Path_34327-2" data-name="Path 34327" d="M0,1.459,25.1,35.668,50.681,67.7,76.686,97.568l26.362,27.788L129.8,151.1l27.14,23.8,27.529,21.919,27.886,20.071,28.21,18.353,28.6,16.634,28.923,15.045L327.3,280.349l29.507,11.965,29.864,10.538,30.091,9.176,30.447,7.944,30.609,6.615,30.934,5.48,31.193,4.442,31.388,3.372,31.679,2.464,31.842,1.524,32.1.681,32.263-.065,32.458-.778,32.62-1.362,65.791-4.377,66.407-6.064,66.893-7.263,67.347-7.912,67.736-8.009,68.028-7.62h-.032l68.255-6.68h0l68.385-5.188h-.032l68.482-3.145h-.032l34.208-.681h-.032l34.241.032h-.032l34.208.746h-.032l34.176,1.654h-.032l34.111,2.5h-.033l34.046,3.5h-.032l33.982,4.54h-.032l33.949,5.577h-.033l33.884,6.777h-.032l33.722,8.041-.032-.032,33.69,9.338h-.065l33.56,10.668h-.065l33.463,12.127-.065-.032,33.3,13.586h-.032l33.139,15.143h-.032l33.009,16.8h-.033l32.879,18.482-.065-.032,32.685,20.266-.065-.032,32.523,22.114-.065-.032,32.328,23.995,1.459-1.946-32.36-24.027-32.522-22.146-32.717-20.266-32.912-18.515L1879.689,377.4l-33.2-15.207L1813.153,348.6l-33.5-12.159-33.592-10.7-33.722-9.339-33.755-8.041-33.949-6.777-33.981-5.61-34.047-4.572-34.079-3.469-34.144-2.529-34.208-1.654-34.209-.746-34.273-.032-34.241.681-68.514,3.145-68.45,5.22-68.287,6.647-68,7.62-67.769,8.041-67.347,7.879h.032l-66.893,7.263h.033l-66.375,6.063h.033l-65.758,4.377h.032l-32.62,1.362h.032l-32.425.778-32.231.065.032.032-32.069-.713h.032l-31.809-1.524h.032l-31.615-2.432h.032l-31.355-3.4h.033l-31.128-4.41.032.032-30.9-5.512.065.032-30.609-6.647.065.032-30.382-7.912h.032l-30.058-9.144h.065l-29.8-10.506h.032L328.24,278.111l.065.033L299.123,264.72l.065.032L270.3,249.739l.065.032-28.534-16.6.032.033-28.178-18.32.065.033-27.821-20.039.032.033-27.464-21.919.032.065-27.107-23.768.065.032-26.718-25.713.032.032L78.469,95.914l.032.032-25.973-29.8.032.032-25.551-32,.032.032L1.946,0Z" fill="url(#linear-gradient-23)"/>
              </g>
              <g id="Group_39808-2" data-name="Group 39808" transform="translate(4.118 94.876)">
                <path id="Path_34328-2" data-name="Path 34328" d="M0,1.362,23.573,36.089,47.7,68.644,72.341,98.962,97.5,127.2l25.648,26.264,26.135,24.254L175.874,200.1l27.043,20.558,27.529,18.774,27.886,17.088L286.7,271.95l28.729,13.91,29.15,12.354,29.507,10.992,29.864,9.565,30.22,8.268,30.577,7.036,30.869,5.9,31.161,4.8,31.452,3.761,31.777,2.789,32.036,1.881,32.263,1.07,32.522.292,32.782-.422,32.976-1.07,66.5-3.7,67.25-5.447,67.866-6.68,68.352-7.3,68.774-7.458,69.066-7.069h-.032l69.26-6.1h-.032l69.39-4.7h-.032l69.325-2.691-.032.032,34.663-.454h-.032l34.6.292h-.032l34.533,1.005h-.032l34.468,1.881h-.032l34.4,2.756h-.032l34.306,3.729h-.065l34.176,4.734-.032-.033,34.079,5.9-.033-.032,33.982,7h-.065L1710.883,337h-.032l33.593,9.5-.033-.032,33.463,10.895h-.032l33.268,12.354-.032-.032,33.074,13.813-.033-.032,32.847,15.37-.065-.032,32.652,17.023-.032-.032,32.393,18.709-.065-.032,32.2,20.46-.032-.032,31.841,22.276-.032-.032,31.615,24.189,1.492-1.913-31.647-24.222-31.906-22.309-32.231-20.493-32.425-18.709L1878,396.625l-32.879-15.37-33.138-13.813-33.333-12.386-33.528-10.895-33.657-9.5-33.82-8.268-34.014-7-34.111-5.869-34.209-4.766-34.338-3.729-34.436-2.756-34.5-1.881-34.533-1.005-34.63-.292-34.663.454-69.39,2.659-69.422,4.7-69.26,6.1-69.066,7.069-68.774,7.458-68.352,7.328L886.116,341.5,818.9,346.95h.032l-66.472,3.729.032-.032-32.944,1.07-32.749.389h.032l-32.49-.259h.032l-32.231-1.07h.032l-32-1.881h.032l-31.744-2.789h.065l-31.42-3.761h.032l-31.128-4.767h.032l-30.8-5.869h.032l-30.512-7.036.032.032-30.155-8.3.065.032L374.835,306.9h.065l-29.442-10.96.065.032-29.118-12.354.065.032-28.7-13.878.065.032-28.307-15.4.032.032-27.821-17.088.032.033-27.464-18.709.065.032-27.01-20.525.065.032-26.556-22.309.032.032-26.1-24.222.065.032L99.254,125.518l.032.065-25.1-28.21.032.032L49.611,67.12l.032.032L25.519,34.663l.032.032L2.01,0Z" transform="translate(0 0)" fill="url(#linear-gradient-23)"/>
              </g>
              <g id="Group_39809-2" data-name="Group 39809" transform="translate(4.54 104.377)">
                <path id="Path_34329-2" data-name="Path 34329" d="M0,1.3,21.984,36.511,44.65,69.552l23.314,30.8,23.9,28.761,24.546,26.718,25.13,24.74L167.184,203.4l26.264,20.979,26.718,19.228,27.3,17.51,27.756,15.888L303.5,291.341l28.761,12.776,29.183,11.349,29.6,10.019,30.058,8.658,30.447,7.425,30.8,6.29,31.193,5.188,31.517,4.086,31.874,3.178,32.2,2.237,32.523,1.394,32.749.648,33.041-.1,33.3-.681,67.315-3.048,68.125-4.831,68.774-6,69.358-6.777,69.811-6.874,70.071-6.485,70.265-5.577h-.032l70.33-4.15h-.032L1365,317.9h-.032l35.019-.195,34.954.519h-.032l34.857,1.3h-.032l34.825,2.075h-.032l34.662,2.951h-.033l34.533,3.988h-.032L1608,333.493h-.032l34.241,6.064-.032-.032,34.014,7.231h-.032l33.787,8.431h-.065l33.625,9.792-.065-.032,33.365,11.089h-.033l33.139,12.516h-.065l32.847,14.008-.033-.032,32.555,15.564-.032-.032,32.3,17.218-.065-.032,31.939,18.9-.032-.032,31.615,20.687-.033-.032,31.291,22.438-.032-.032,30.9,24.384,1.491-1.913-30.933-24.384-31.323-22.5-31.679-20.687-31.971-18.936-32.36-17.218-32.62-15.6-32.879-14.04-33.171-12.549-33.431-11.089-33.657-9.792-33.819-8.463-34.047-7.231-34.306-6.063-34.371-4.993-34.565-3.956-34.7-2.983-34.857-2.075-34.857-1.3-35.019-.519-35.052.195-70.3,2.173-70.363,4.15-70.265,5.577-70.1,6.517-69.812,6.874L944.741,347.5h.032l-68.806,6H876l-68.093,4.831h.032l-67.282,3.048h.032l-33.268.681h.032l-33.041.1h.032l-32.717-.648h.032l-32.523-1.394h.032l-32.133-2.237h.032l-31.841-3.145h.032l-31.485-4.118h.032l-31.128-5.156.032.032L452.04,339.2h.065l-30.382-7.393h.032l-29.993-8.658h.032l-29.539-9.987.032.032-29.118-11.316h.065l-28.729-12.743h.065l-28.21-14.267.065.033L248.7,259.045l.065.032-27.237-17.51.032.032-26.686-19.163.065.033-26.2-20.947.032.032-25.616-22.762.065.032-25.065-24.708.032.032L93.676,127.5l.065.032-23.9-28.7.032.032L46.6,68.093l.032.065L23.995,35.182l.032.032L2.043,0Z" fill="url(#linear-gradient-23)"/>
              </g>
              <g id="Group_39810-2" data-name="Group 39810" transform="translate(4.961 113.877)">
                <path id="Path_34330-2" data-name="Path 34330" d="M0,1.2,20.428,36.932,41.666,70.46l21.952,31.323,22.7,29.247,23.411,27.14L133.819,183.4l24.74,23.281,25.421,21.465,26.005,19.682,26.654,17.964,27.2,16.277,27.821,14.753,28.307,13.2,28.891,11.8L378.24,332.2l29.831,9.047,30.318,7.879,30.772,6.647,31.225,5.545,31.582,4.475,32,3.534,32.328,2.594,32.717,1.783,33.041.973,33.366.259,33.625-.357,68.061-2.4,68.936-4.183,69.779-5.415,70.363-6.128L1077,350.128l71.109-5.966h0l71.271-5.026,71.238-3.664h-.032l71.141-1.654h-.032l35.441.065h-.032l35.343.778,35.214,1.492h-.033l35.084,2.335h-.032l34.954,3.243-.032-.032,34.76,4.183h-.032l34.533,5.22-.032-.032,34.338,6.29h-.032l34.111,7.425h-.032l33.819,8.658H1709l33.56,9.955h-.032l33.3,11.284-.065-.032,32.976,12.776-.065-.032,32.62,14.235-.032-.032,32.263,15.759-.033-.032,31.874,17.445-.032-.032,31.517,19.066h-.065l31.1,20.817-.032-.032,30.674,22.7-.032-.032,30.22,24.546,1.524-1.913-30.252-24.546L1969.28,492.6l-31.161-20.849-31.55-19.131-31.939-17.445L1842.3,419.388l-32.652-14.235-33.041-12.776-33.333-11.284-33.625-9.987-33.852-8.69-34.176-7.458-34.371-6.258-34.565-5.22L1537.9,339.3l-34.987-3.21-35.116-2.367-35.279-1.492-35.343-.778-35.506-.065-71.141,1.686-71.3,3.632-71.3,5.026-71.109,6-70.849,6.291-70.33,6.128h0l-69.747,5.415h.032l-68.936,4.183h.032l-68.061,2.4h.032l-33.593.357h.032l-33.333-.259h.032l-33.009-.973h.032l-32.685-1.783h.032l-32.3-2.594h.032l-32-3.5h.065l-31.55-4.475h.032l-31.161-5.545.032.032-30.707-6.647h.032l-30.253-7.847h.032l-29.766-9.014h.032l-29.312-10.376.032.032-28.794-11.77.032.032-28.242-13.2.032.032-27.756-14.721.065.065L237.9,263.714l.065.032-26.621-17.931.065.032-25.94-19.617.032.032L160.181,204.83l.032.065L135.5,181.646l.032.032L111.51,156.517l.032.065L88.164,129.474l.032.032L65.564,100.324l.032.032L43.677,69.1l.032.033L22.5,35.668l.032.032L2.108,0Z" fill="url(#linear-gradient-23)"/>
              </g>
              <g id="Group_39811-2" data-name="Group 39811" transform="translate(5.383 123.378)">
                <path id="Path_34331-2" data-name="Path 34331" d="M0,1.1,18.871,37.322,38.618,71.368l20.655,31.809,21.465,29.7,22.276,27.691L126.1,186.218l23.833,23.768,24.546,21.887,25.324,20.1,25.973,18.418,26.686,16.731,27.3,15.143,27.918,13.651,28.567,12.192,29.118,10.8,29.669,9.468,30.22,8.2L456,363.616l31.161,5.934,31.68,4.864,32.133,3.891,32.49,2.983,32.912,2.108,33.268,1.3,33.657.648,33.949-.032,68.839-1.751,69.844-3.534,70.687-4.831,71.368-5.512,71.854-5.739h-.032l72.178-5.383,72.243-4.507,72.243-3.113h-.032l71.984-1.167h-.033l35.862.292h-.032l35.733,1.005h-.032l35.57,1.751h-.033l35.408,2.562h-.033l35.214,3.47h-.032l34.954,4.41h-.032l34.76,5.383h-.032l34.468,6.518h-.032l34.176,7.685h-.032l33.884,8.852h-.065l33.56,10.182-.065-.032,33.171,11.543-.033-.032,32.815,12.938-.032-.032,32.393,14.429h-.032l31.971,15.953-.065-.032,31.55,17.607-.065-.032,31.063,19.325-.032-.032,30.577,21.011-.065-.032,30.058,22.827-.065-.032,29.54,24.773,1.557-1.881-29.54-24.773-30.091-22.86-30.642-21.076-31.1-19.325-31.582-17.639-32-15.986-32.49-14.462-32.847-12.938-33.236-11.543-33.592-10.182-33.917-8.885-34.241-7.717-34.5-6.517-34.792-5.415-34.987-4.41-35.246-3.47-35.441-2.562-35.6-1.751-35.733-1.005-35.895-.292-72.016,1.167-72.276,3.113-72.276,4.507-72.178,5.415-71.854,5.707-71.368,5.512-70.655,4.831h0l-69.811,3.534h.032l-68.774,1.751h.032l-33.917.032h.032l-33.657-.648h.032l-33.236-1.3-32.847-2.108h.032l-32.49-2.983h.032l-32.1-3.859h.032l-31.582-4.864.032.032-31.161-5.966.065.032-30.707-7.036.065.032-30.188-8.2h.065l-29.6-9.436h.032l-29.053-10.765.065.032-28.5-12.192.032.032L280.867,300.1l.065.032-27.27-15.11.065.032-26.621-16.7.032.032-25.908-18.353.065.032L176,229.992l.065.065L151.588,208.2l.032.032L127.853,184.5l.032.065-23.022-25.616.032.065L82.652,131.387l.032.033L61.251,101.783l.032.032L40.661,70.071l.032.065L20.979,36.154l.032.032L2.14,0Z" fill="url(#linear-gradient-23)"/>
              </g>
              <g id="Group_39812-2" data-name="Group 39812" transform="translate(5.804 132.879)">
                <path id="Path_34332-2" data-name="Path 34332" d="M0,1.038,17.315,37.776l18.32,34.5,19.293,32.3,20.233,30.22L96.335,162.9l22.017,26.135,22.925,24.222L165.012,235.6l24.546,20.558,25.389,18.871,26.07,17.153,26.848,15.6,27.561,14.04,28.21,12.581,28.858,11.219L382,355.478l30.058,8.593,30.674,7.425,31.225,6.323,31.712,5.253,32.231,4.215,32.685,3.34,33.106,2.5,33.56,1.654,33.949.973,34.273.259,69.584-1.07,70.719-2.886,71.627-4.215,72.341-4.929,72.924-5.156,73.184-4.831h-.032l73.314-3.956h-.032l73.184-2.594h-.032l72.892-.649h-.033l36.252.551h-.033l36.122,1.232h-.032l35.895,1.978h-.032l35.733,2.789h-.033L1534.458,376h-.032l35.214,4.6h-.032l34.89,5.642-.033-.032,34.63,6.744h-.032l34.273,7.912h-.032l33.884,9.079-.032-.032,33.5,10.409-.032-.032,33.074,11.738h-.033l32.653,13.1h-.033l32.166,14.624-.065-.032,31.68,16.213-.032-.032,31.161,17.8-.033-.032,30.609,19.488-.032-.032,30.058,21.238-.065-.032,29.442,23.022-.033-.032,28.794,24.9,1.589-1.816-28.826-24.967-29.474-23.054-30.123-21.271-30.674-19.52-31.225-17.834-31.712-16.213L1807.251,442.9l-32.717-13.132-33.139-11.77-33.56-10.376-33.917-9.111-34.338-7.912-34.663-6.744L1570,378.208l-35.279-4.637-35.506-3.7-35.733-2.821-35.927-1.978-36.154-1.232-36.251-.551-72.924.649-73.216,2.594-73.313,3.956-73.184,4.831-72.924,5.156-72.341,4.929h.032l-71.627,4.215h.032l-70.687,2.886h.032l-69.552,1.07h.032l-34.273-.259-33.917-.973h.032l-33.5-1.654h.032l-33.106-2.5h.032l-32.652-3.34.032.032L506,380.672h.065l-31.679-5.253h.032l-31.161-6.29h.032l-30.609-7.393h.033l-30.026-8.593.065.032-29.475-9.857.065.032-28.794-11.187h.065l-28.177-12.549.065.032L269,305.64l.032.032-26.751-15.6.065.032L216.309,273.02l.032.033-25.292-18.839.065.065L166.6,233.753l.065.065-23.7-22.309.065.032-22.892-24.157.032.065-21.952-26.1.032.065L77.14,133.365l.032.032-20.2-30.155.032.065L37.743,71.076l.032.032L19.488,36.673l.032.032L2.2,0Z" fill="url(#linear-gradient-23)"/>
              </g>
              <g id="Group_39813-2" data-name="Group 39813" transform="translate(6.226 142.379)">
                <path id="Path_34333-2" data-name="Path 34333" d="M0,.94,15.759,38.165,32.587,73.184l18,32.782,19,30.674,20.006,28.631,21.044,26.621,21.952,24.643,22.925,22.827,23.833,21.012,24.74,19.261L229.6,297.274l26.362,15.986,27.14,14.462,27.886,12.97,28.631,11.641,29.312,10.246,29.961,9.014,30.609,7.814,31.225,6.68,31.809,5.577,32.328,4.637,32.847,3.664,33.333,2.853,33.787,2.01,34.241,1.329,34.63.616,70.33-.454,71.562-2.27,72.6-3.567,73.346-4.345,73.929-4.572,74.189-4.28,74.319-3.437h-.032l74.189-2.075h-.032l73.735-.13h-.032l36.673.778h-.032l36.511,1.492h-.032l36.251,2.237h-.032l36.024,3.016h-.032l35.733,3.923h-.032l35.441,4.864h-.065l35.116,5.869-.033-.032,34.76,6.971h-.033l34.371,8.074h-.065l33.949,9.339h-.065l33.5,10.571h-.065l33.009,11.932-.064-.032,32.522,13.327h-.065l31.971,14.851-.032-.032,31.355,16.375h-.065l30.836,17.964-.064-.032,30.155,19.65-.065-.032,29.539,21.465-.065-.065,28.826,23.281-.032-.065,28.113,25.13,1.621-1.816-28.145-25.13L1960.136,552.2l-29.572-21.466-30.22-19.682-30.869-18.028-31.388-16.407-32.036-14.883L1773.5,448.376l-33.041-11.932-33.528-10.6-33.949-9.338-34.435-8.106-34.792-6.971-35.149-5.869-35.441-4.864-35.8-3.923-36.024-3.048-36.284-2.237-36.511-1.492-36.705-.778-73.767.13-74.189,2.075-74.351,3.437-74.189,4.28-73.929,4.572-73.346,4.345L835.5,401.619h.032l-71.562,2.27H764l-70.3.454h.032l-34.6-.616h.032L624.931,402.4h.032l-33.755-2.01h.032l-33.333-2.853.032.032L525.159,393.9h.032l-32.3-4.637h.032l-31.777-5.577h.065l-31.161-6.68.032.032-30.545-7.782.032.032-29.9-9.047.032.032-29.28-10.246.065.032-28.567-11.608.065.032-27.853-12.97.065.032L257.132,311.12l.065.032L230.9,295.2l.065.032-25.486-17.574.065.032-24.676-19.228.065.065-23.768-20.979.032.065-22.86-22.762.065.065L112.483,190.3l.032.032L91.536,163.78l.032.065L71.595,135.278l.032.065L52.659,104.7l.032.065L34.727,72.049l.032.065-16.8-34.954v.032L2.237,0Z" fill="url(#linear-gradient-23)"/>
              </g>
              <g id="Group_39814-2" data-name="Group 39814" transform="translate(6.615 151.88)">
                <path id="Path_34334-2" data-name="Path 34334" d="M0,.843,14.2,38.586,29.6,74.092l16.634,33.3,17.769,31.128,18.9,29.085,20.006,27.107,21.076,25.1,22.082,23.281,23.087,21.433,24.027,19.747L218.222,302.3,244.1,318.708l26.751,14.916,27.561,13.424,28.372,12L355.9,369.712l29.9,9.371,30.545,8.2,31.226,7.036,31.874,6,32.458,4.993,32.976,4.053,33.56,3.145,34.046,2.367,34.533,1.654,34.954.973,35.343.389,35.765-.162,72.406-1.654,73.573-2.951,74.383-3.761,74.935-4.021,75.194-3.7h0l75.356-2.918h-.032l75.064-1.524h-.032l74.675.357h-.032l37.062,1.038h-.032l36.868,1.751-.033-.032,36.608,2.464H1459l36.349,3.275h-.032l35.992,4.183-.032-.032,35.668,5.123h-.033l35.311,6.1h-.065l34.857,7.134h-.032l34.468,8.333h-.065l33.949,9.5h-.032l33.43,10.8h-.032l32.944,12.127h-.065l32.328,13.521h-.065l31.744,15.045-.032-.032,31.064,16.6-.033-.032,30.447,18.191-.065-.032,29.7,19.877-.032-.032,28.988,21.628-.032-.032,28.177,23.379-.065-.032,27.432,25.324,1.654-1.783-27.464-25.357-28.21-23.443-29.053-21.66L1898.3,530.541l-30.512-18.223-31.128-16.6-31.777-15.078-32.36-13.586-33.009-12.159-33.5-10.83-33.981-9.5-34.5-8.366-34.89-7.166-35.344-6.1-35.7-5.123-36.025-4.15-36.381-3.307-36.608-2.432-36.9-1.718-37.094-1.07-74.675-.357-75.1,1.524-75.356,2.918-75.227,3.729-74.935,3.988L898.924,410.7h.032l-73.54,2.951L753.043,415.3h.032l-35.765.162h.032l-35.311-.389L647.11,414.1h.032l-34.533-1.654h.032l-34.014-2.367h.032l-33.528-3.145h.032l-32.976-4.053h.032l-32.393-4.993.032.032-31.842-5.966h.032l-31.161-7.036h.032l-30.48-8.171.032.032-29.8-9.4.032.032-29.085-10.635h.065L299.414,344.81l.032.032-27.529-13.392.065.032L245.3,316.6l.065.032-25.81-16.342.065.032-24.967-18,.065.033-23.962-19.682.032.032-23.054-21.368.065.065-22.017-23.249.065.065L104.8,193.19l.065.032L84.889,166.179l.032.065L66.05,137.256l.032.032-17.7-31.063.032.065-16.6-33.236.032.032L16.472,37.646v.032L2.3,0Z" fill="url(#linear-gradient-23)"/>
              </g>
              <g id="Group_39815-2" data-name="Group 39815" transform="translate(7.069 161.413)">
                <path id="Path_34335-2" data-name="Path 34335" d="M0,.778,12.581,39.008,26.556,75l15.3,33.82L58.4,140.4l17.8,29.6,18.969,27.5L115.3,223.118l21.3,23.7,22.341,21.887,23.379,20.168,24.449,18.482L232.2,324.187l26.329,15.337,27.237,13.846,28.113,12.386,28.956,11.057,29.734,9.792,30.512,8.56,31.225,7.425,31.939,6.355L498.8,414.3l33.2,4.41,33.755,3.534,34.306,2.691,34.792,2.01,35.279,1.3,35.765.713,36.089.162,73.313-.973,74.481-2.367,75.389-3.145,75.94-3.437,76.3-3.178h-.033l76.329-2.367h-.032l76.069-1.005h-.032l75.551.876h-.032l37.484,1.265,37.192,1.945h-.032l36.965,2.724h-.032l36.641,3.534h-.033l36.284,4.377-.033-.032,35.895,5.318h-.032l35.473,6.323h-.032l35.019,7.36h-.065l34.533,8.528h-.065l34.046,9.76-.065-.032,33.43,11.025h-.065l32.847,12.354-.065-.032,32.166,13.781-.065-.032,31.55,15.24-.065-.032,30.771,16.8-.032-.032,30.058,18.385-.065-.065,29.28,20.1-.032-.032,28.437,21.79-.065-.032,27.626,23.638-.032-.065,26.686,25.519,1.686-1.751L1981.7,615.593l-27.691-23.67L1925.539,570.1l-29.345-20.136-30.123-18.385-30.8-16.829-31.615-15.272-32.2-13.781-32.879-12.386-33.463-11.025-34.079-9.792-34.533-8.528-35.084-7.393-35.506-6.323-35.927-5.318-36.316-4.377-36.641-3.534-37-2.724-37.224-1.945-37.484-1.265-75.583-.875-76.1,1.005-76.329,2.367-76.3,3.178L965.039,420.2h.032l-75.389,3.145-74.448,2.367-73.249.973-36.089-.162h.032l-35.732-.713h.032l-35.279-1.3h.032l-34.76-2.01h.032l-34.306-2.691h.032l-33.722-3.5h.032l-33.139-4.41h.032l-32.522-5.35.032.032-31.906-6.355h.065l-31.161-7.393h.032l-30.48-8.56h.065l-29.669-9.76.032.032-28.891-11.057.065.032-28.08-12.386.065.032-27.172-13.781.065.032-26.3-15.3.065.032-25.357-16.8.065.065-24.384-18.45.065.065-23.346-20.136.065.065-22.276-21.822.065.033L117.12,221.529l.065.065L97.114,196.043l.032.065-18.9-27.464.032.065L60.505,139.2l.032.032-16.5-31.517.032.065L28.794,74.027l.032.065L14.883,38.165v.065L2.3,0Z" fill="url(#linear-gradient-23)"/>
              </g>
              <g id="Group_39816-2" data-name="Group 39816" transform="translate(7.458 170.913)">
                <path id="Path_34336-2" data-name="Path 34336" d="M0,.681,11.057,39.429,23.606,75.908l13.943,34.273,15.3,32.133L69.52,172.34l17.964,28.015,19.2,26.037,20.46,24.189,21.628,22.309,22.762,20.59,23.865,18.9,24.935,17.283,25.94,15.726,26.945,14.235,27.853,12.808,28.794,11.479,29.6,10.182,30.447,8.949,31.258,7.782,31.971,6.744,32.652,5.707,33.366,4.734,33.982,3.891,34.565,3.08,35.084,2.335,35.635,1.621,36.089,1.07,36.543.486,74.157-.357,75.421-1.751L957,435.795l77.01-2.853,77.3-2.594,77.334-1.816h-.032l77.042-.486h-.032l76.394,1.362h-.032l37.873,1.556,37.613,2.2h-.033l37.289,2.918h-.032l36.932,3.729h-.032l36.576,4.637h-.033L1564.257,450h-.032l35.668,6.517h-.032l35.116,7.652-.033-.032,34.6,8.755h-.032l34.047,9.955h-.065l33.4,11.219-.065-.032,32.717,12.549h-.065l32.036,13.975h-.033l31.29,15.434-.032-.032,30.479,16.991-.065-.032,29.7,18.58-.065-.032,28.826,20.266-.065-.032,27.983,21.984-.065-.032,26.978,23.833-.065-.065,26.037,25.681,1.686-1.719-26.037-25.713-27.01-23.865-28.015-22.049-28.859-20.3-29.766-18.612-30.544-17.023-31.355-15.467-32.069-14.04-32.782-12.549-33.43-11.252-34.079-9.955-34.63-8.755-35.182-7.652-35.7-6.55-36.154-5.545-36.608-4.637-36.932-3.761-37.322-2.918-37.646-2.2-37.905-1.556-76.426-1.362-77.075.486-77.334,1.816-77.3,2.594L956.9,433.363l-76.329,2.594-75.389,1.751-74.124.357-36.478-.486-36.057-1.07-35.6-1.621h.032L587.9,432.552h.032l-34.565-3.08h.032l-33.949-3.859h.032l-33.3-4.734h.032l-32.62-5.707h.032L421.69,408.46h.065l-31.225-7.782h.032l-30.382-8.917.065.032-29.572-10.182.065.032-28.761-11.479.065.032-27.788-12.776.065.032-26.881-14.2.065.032-25.908-15.694.065.065-24.838-17.25.065.032-23.8-18.839.065.065-22.73-20.558.065.065L128.923,248.9l.032.065-20.4-24.124.065.065L89.461,198.929l.065.065L71.595,171.043l.032.065L54.993,141.147l.032.065L39.753,109.176l.032.065L25.843,75.032l.032.065L13.359,38.651l.032.065L2.367,0Z" fill="url(#linear-gradient-23)"/>
              </g>
              <g id="Group_39817-2" data-name="Group 39817" transform="translate(7.912 180.414)">
                <path id="Path_34337-2" data-name="Path 34337" d="M0,.584,9.5,39.818l11.057,37,12.581,34.76,14.137,32.587,15.5,30.512,16.958,28.469,18.288,26.524,19.617,24.611,20.882,22.827,22.114,20.979,23.314,19.358,24.449,17.7,25.584,16.148,26.556,14.624,27.626,13.229,28.631,11.868,29.474,10.571,30.415,9.338,31.258,8.171,32.036,7.1,32.782,6.1,33.56,5.123,34.144,4.248,34.825,3.4,35.408,2.659,35.927,1.978,36.478,1.362,36.9.843,75.032.227,76.394-1.1,77.367-1.978,78.015-2.27,78.372-2.01h-.032l78.339-1.3h77.918l77.3,1.848h-.032l38.294,1.816h-.032l37.97,2.432h-.032l37.678,3.21h-.032l37.256,3.956h-.032l36.8,4.864h-.032l36.349,5.772h-.032l35.83,6.777-.032-.032,35.311,7.847h-.032l34.663,8.949h-.032l34.047,10.181-.065-.032,33.365,11.446h-.065l32.652,12.776h-.065l31.874,14.17-.033-.032,31.063,15.661-.065-.032,30.22,17.185-.065-.032,29.345,18.774-.065-.032,28.372,20.493-.065-.065,27.4,22.179-.032-.065,26.362,24.027-.065-.065,25.324,25.908,1.751-1.719-25.356-25.908-26.427-24.059-27.432-22.211-28.437-20.493L1862.7,570.132l-30.285-17.218-31.1-15.661-31.939-14.2-32.685-12.808-33.4-11.478-34.079-10.182L1634.49,479.6l-35.376-7.847-35.862-6.777-36.349-5.772-36.867-4.9-37.289-3.956-37.678-3.21-37.97-2.432-38.327-1.816-77.3-1.848h-78.015l-78.339,1.3-78.372,2.01-78.015,2.27L871.363,448.6,795,449.705h.033l-75-.227h.032l-36.9-.843-36.414-1.362L610.826,445.3h.032l-35.376-2.659h.032l-34.792-3.4h.033l-34.144-4.248.032.032-33.5-5.123h.032l-32.749-6.063h.032l-31.971-7.1h.032l-31.193-8.139h.032l-30.35-9.338.065.032-29.442-10.538h.065l-28.567-11.835.065.032-27.561-13.2.065.032L235.18,349.187l.065.032L209.759,333.1l.032.032L185.407,315.5l.065.032-23.249-19.293.065.065-22.049-20.947.032.065-20.817-22.763.065.065L99.934,228.176l.065.065L81.776,201.815l.032.065-16.926-28.4.065.065-15.5-30.447.032.065-14.073-32.49.032.065L22.827,76.037l.032.065L11.835,39.137V39.2L2.367,0Z" fill="url(#linear-gradient-23)"/>
              </g>
              <g id="Group_39818-2" data-name="Group 39818" transform="translate(8.333 189.947)">
                <path id="Path_34338-2" data-name="Path 34338" d="M0,.454,3.761,20.59l4.15,19.65,9.63,37.484,11.252,35.214L41.7,146.043l14.364,30.966,15.953,28.923,17.347,27.01,18.774,25.065,20.169,23.216,21.465,21.5,22.762,19.714,23.995,18.126,25.1,16.6,26.329,15.013,27.334,13.651,28.437,12.257,29.377,10.96,30.35,9.7,31.29,8.593,32.1,7.458,32.912,6.453,33.657,5.48,34.4,4.572,35.052,3.761,35.733,3.016,36.251,2.335,36.8,1.686,37.321,1.135,75.907.908,77.3-.486,78.4-1.362,79.053-1.751,79.377-1.492h-.032l79.344-.746,78.923.551h-.032l78.177,2.367h-.032l38.683,2.075h-.032l38.359,2.691,37.97,3.4,37.581,4.215h-.032l37.062,5.091-.032-.032,36.608,6h-.032l35.992,7-.065-.032L1632.9,499.7h-.065l34.792,9.209h-.065l34.047,10.376-.032-.032,33.333,11.673h-.033l32.555,12.97-.032-.032,31.679,14.4-.065-.032,30.869,15.888-.065-.032,29.9,17.347-.032-.032,28.956,19-.065-.032,27.951,20.655-.065-.065,26.881,22.406-.065-.032,25.746,24.189-.032-.032,24.578,26.037,1.783-1.654-24.611-26.1-25.81-24.254-26.945-22.438L1890,608.394l-29.021-19.066-29.961-17.38-30.934-15.888-31.712-14.4-32.62-13-33.4-11.706-34.112-10.376-34.792-9.241-35.506-8.074-36.024-7-36.608-6-37.127-5.058-37.613-4.248-38-3.4-38.391-2.691-38.683-2.075-78.209-2.367-78.955-.551-79.377.746-79.377,1.492-79.053,1.751-78.372,1.362h.032l-77.3.486h.032l-75.875-.908-37.289-1.135h.032l-36.8-1.686h.032l-36.251-2.335h.032l-35.7-3.016.033.032-35.019-3.794.032.032-34.371-4.572h.032l-33.657-5.48h.032l-32.847-6.453.032.032L395.3,424.965l.065.032L364.135,416.4l.032.032-30.285-9.7h.065L304.6,395.815h.065L276.3,383.623l.065.032-27.3-13.619.065.032-26.232-15.013.065.032-25.065-16.537.065.065-23.93-18.093.065.065-22.7-19.682.065.065-21.4-21.433.065.065-20.1-23.152.065.065-18.742-25,.032.065L74.059,204.668l.065.065L58.2,175.875l.032.065L43.9,145.038l.032.065L31.1,112.094v.1L19.877,77.01l.032.065-9.63-37.419.032.032L6.128,20.1v.032L2.4,0Z" fill="url(#linear-gradient-23)"/>
              </g>
              <g id="Group_39819-2" data-name="Group 39819" transform="translate(8.755 199.448)">
                <path id="Path_34339-2" data-name="Path 34339" d="M0,.357,2.983,20.785l3.4,19.844L14.559,78.6l9.89,35.733,11.641,33.528,13.294,31.485,14.883,29.41,16.44,27.432L98.67,261.736l19.423,23.67,20.817,21.919,22.211,20.2L184.6,346.074l24.74,16.958L235.31,378.5l27.107,14.04,28.275,12.646,29.248,11.381,30.285,10.117,31.258,8.885,32.166,7.879,33.041,6.809,33.852,5.836,34.6,4.929,35.311,4.15,35.992,3.34,36.608,2.659,37.192,2.01,37.71,1.492L774.7,476.2l78.274.1,79.345-.778,80.123-1.135,80.382-.94,80.349-.162,79.9,1.038h-.032l79.052,2.886v-.032l39.073,2.3h-.032l38.748,2.951h-.032l38.327,3.632h-.032l37.873,4.475h-.032l37.354,5.318,36.8,6.226h-.032l36.187,7.2-.033-.032,35.57,8.3h-.032l34.857,9.436h-.065l34.111,10.571h-.065l33.333,11.868-.065-.032,32.458,13.2h-.032l31.55,14.559h-.065l30.609,16.051-.065-.032,29.6,17.607-.032-.065,28.567,19.2-.065-.032,27.5,20.817-.065-.032,26.362,22.6-.065-.032,25.162,24.384-.065-.065,23.93,26.264,1.783-1.654-23.93-26.264-25.227-24.449-26.394-22.665-27.529-20.849-28.631-19.228-29.669-17.639-30.674-16.083L1767.3,560.34l-32.49-13.229-33.366-11.868-34.144-10.6-34.889-9.468-35.635-8.3-36.219-7.2-36.835-6.226-37.419-5.35-37.873-4.442-38.359-3.664-38.748-2.951-39.1-2.27-79.085-2.886-79.961-1.038-80.349.162-80.415.94-80.123,1.135h.033l-79.377.778h.032l-78.274-.1h.032l-76.718-1.524h.032l-37.711-1.492h.032l-37.159-2.01-36.576-2.659h.032l-35.96-3.34-35.279-4.118h.032L480.9,453.694h.032l-33.82-5.836.032.032-32.977-6.809h.032l-32.1-7.847h.032l-31.193-8.884h.032l-30.22-10.084h.065L291.6,402.948l.032.032-28.177-12.646.065.032L236.445,376.36l.065.032-25.875-15.434.065.065L186.023,344.1l.065.032-23.443-18.482.065.065-22.146-20.136.065.065-20.752-21.887.065.065-19.358-23.573.032.065-17.9-25.486.032.065L66.374,207.554l.032.065L51.588,178.274l.032.065L38.327,146.951l.032.1L26.783,113.586v.065l-9.89-35.668.032.065L8.755,40.143v.032L5.383,20.4v.032L2.4,0Z" fill="url(#linear-gradient-23)"/>
              </g>
            </g>
          </g>
        </g>
      </g>
    </g>
  </g>
</svg>
