<svg xmlns="http://www.w3.org/2000/svg" xmlns:xlink="http://www.w3.org/1999/xlink" width="1920" height="1080" viewBox="0 0 1920 1080">
  <defs>
    <clipPath id="clip-path">
      <rect id="Rectangle_17493" data-name="Rectangle 17493" width="1920" height="1080" fill="#fff" opacity="0.11"/>
    </clipPath>
    <linearGradient id="linear-gradient" x1="1.137" y1="0.041" x2="0.316" y2="1.03" gradientUnits="objectBoundingBox">
      <stop offset="0" stop-color="#fff"/>
      <stop offset="1"/>
    </linearGradient>
    <linearGradient id="linear-gradient-15" x1="0.5" x2="0.5" y2="1" gradientUnits="objectBoundingBox">
      <stop offset="0" stop-color="#fc0"/>
      <stop offset="1" stop-color="#262425"/>
    </linearGradient>
  </defs>
  <g id="Main_header_lines_Gold_circle" data-name="Main header lines + Gold circle" clip-path="url(#clip-path)">
    <g id="b" transform="translate(564.551 -33)">
      <g id="c">
        <g id="Group_39789" data-name="Group 39789">
          <g id="Group_39775" data-name="Group 39775">
            <path id="Path_34304" data-name="Path 34304" d="M896.418,0l25.036,14.432,23.883,15.252,22.692,16.052,21.54,16.795L1009.9,80.047l19.157,18.2L1047,117.132l16.736,19.489L1079.3,156.7l14.373,20.642,13.123,21.208,11.952,21.7,10.7,22.145,9.53,22.594,8.28,22.985,7.089,23.376,5.82,23.727,4.628,24.04,3.4,24.313,2.148,24.567.918,24.762-.332,24.957-1.562,25.133-2.812,25.231-4.062,25.368-5.312,25.387-6.562,25.426-7.811,25.426-9.061,25.407L1123.4,660.4l-11.6,25.231-12.889,25.114-14.139,24.938-15.427,24.782-16.7,24.528-17.966,24.274-19.275,24L994.881,856.97l-21.833,23.356-23.122,22.946L925.5,925.828l-25.7,22.126-27.008,21.638-28.316,21.149-29.625,20.622-30.914,20.056-32.242,19.431-33.55,18.845-34.9,18.161-36.167,17.478-37.514,16.755L570.721,1138.1l-40.17,15.213-41.5,14.432L446.227,1181.3l-44.193,12.693-45.5,11.776-46.849,10.838-23.922,5.078-24.274,4.823-24.606,4.55-24.957,4.316-25.289,4.042-25.6,3.789-25.992,3.535-26.266,3.242-26.637,2.968-27.008,2.714-27.32,2.4L.156,1260.215,0,1257.988l27.633-2.148h-.02l27.32-2.4h-.02l26.988-2.695h-.02l26.637-2.988h-.02l26.266-3.242h-.02l25.973-3.535-.02.02,25.6-3.788h0l25.27-4.042h-.02l24.938-4.316h-.02l24.606-4.55h-.02l24.254-4.8h0l23.883-5.077h-.02l46.829-10.819h-.02l45.482-11.776-.039.02,44.174-12.694-.039.02,42.807-13.553h-.02l41.459-14.412-.039.02,40.151-15.193h-.039L608.7,1120.02l-.039.019L646.16,1103.3h-.039l36.147-17.439h-.039l34.878-18.142h-.039l33.53-18.806-.039.02,32.2-19.431-.039.02,30.894-20.017-.039.02,29.605-20.6-.019.02,28.277-21.13-.039.02,26.969-21.618-.02.039,25.68-22.106-.02.019,24.372-22.516-.02.02,23.1-22.927-.039.039,21.813-23.317-.02.02,20.485-23.669-.02.039,19.236-23.961-.039.039,17.947-24.254-.019.02,16.677-24.489-.02.039,15.389-24.723-.02.039,14.119-24.9-.019.039,12.85-25.075-.019.059,11.58-25.211-.02.039,10.331-25.25-.02.039,9.042-25.348v.059l7.811-25.387-.02.059,6.542-25.387v.039l5.292-25.348-.02.059,4.062-25.289-.02.039,2.812-25.172v.059l1.562-25.075v.039l.332-24.9v.059l-.918-24.7v.059l-2.148-24.508v.039l-3.378-24.254.02.059-4.628-23.981.02.059-5.819-23.669.02.059-7.069-23.317.02.039-8.261-22.926.02.059-9.491-22.536.02.039-10.682-22.087.02.059-11.912-21.657.02.059-13.1-21.149.039.039-14.334-20.583.039.039L1062,138.008l.039.059-16.7-19.47.039.039L1027.454,99.81l.039.039-19.118-18.162.039.039-20.29-17.5.039.039L966.681,47.513l.039.039L944.067,31.519l.059.039L920.282,16.326l.039.02L895.3,1.933Z" fill="url(#linear-gradient)"/>
          </g>
          <g id="Group_39776" data-name="Group 39776" transform="translate(0 0.723)">
            <path id="Path_34305" data-name="Path 34305" d="M932.311.37,956.37,15.876l22.868,16.248,21.716,17.009,20.525,17.712L1040.792,85.2l18.122,19.04,16.931,19.607,15.7,20.212,14.529,20.739,13.318,21.267,12.127,21.774,10.917,22.2,9.706,22.634,8.495,23.044,7.265,23.415,6.073,23.747,4.843,24,3.632,24.333,2.422,24.567,1.191,24.762-.058,24.957-1.25,25.114-2.5,25.211-3.73,25.309-4.941,25.387-6.21,25.407-7.421,25.407-8.671,25.387-9.881,25.289-11.151,25.25-12.381,25.075L1104.24,723.3l-14.881,24.762-16.13,24.528-17.361,24.333-18.611,24.04-19.9,23.727-21.13,23.376-22.38,23.024L950.2,913.719l-24.918,22.224L899.113,957.7l-27.438,21.286-28.707,20.759-29.976,20.193-31.226,19.626-32.5,19.04-33.8,18.4-35.073,17.712-36.323,17.029-37.631,16.306-38.881,15.525-40.19,14.744-41.459,13.924-42.767,13.1L399.1,1197.547l-45.326,11.287-46.615,10.35-47.923,9.374-49.231,8.378-50.52,7.362-51.79,6.288L54.563,1255.8.156,1259.882,0,1257.636l54.387-4.062h-.02l53.1-5.214h-.039l51.79-6.288h-.039l50.5-7.343h-.039l49.212-8.358h-.039l47.9-9.374h-.02l46.6-10.331h-.039l45.306-11.288h-.02l44-12.186h-.02l42.728-13.084-.039.02,41.439-13.924h-.039l40.17-14.724h-.02l38.842-15.506h-.019l37.592-16.267h-.039l36.3-17.009-.02.02,35.034-17.712-.02.02,33.745-18.376-.02.02,32.456-19.021-.02.02L811.8,1018.06l-.039.02,29.957-20.193-.039.019,28.687-20.72-.039.02,27.4-21.247-.02.019,26.149-21.735-.039.02L948.7,912.079l-.039.02,23.63-22.594-.039.019,22.38-23-.039.039,21.091-23.356-.019.02,19.86-23.688-.02.039,18.591-24-.039.039,17.361-24.293-.02.039,16.091-24.508-.039.039,14.861-24.723-.02.039,13.611-24.918-.02.039,12.362-25.036-.02.039,11.131-25.192-.02.039,9.862-25.25-.019.059,8.671-25.328-.02.039,7.4-25.368-.02.059,6.191-25.368v.059l4.941-25.328-.02.039,3.711-25.25v.039l2.5-25.153v.059l1.25-25.075v.059l.059-24.9v.059l-1.191-24.7v.039l-2.4-24.489v.059l-3.632-24.274.02.059-4.824-23.961v.039l-6.054-23.669.02.039-7.265-23.337.02.039-8.475-22.985.02.059-9.667-22.594.02.059-10.9-22.145.039.039-12.108-21.716.039.059-13.3-21.227.039.039-14.51-20.681.039.039-15.681-20.173.039.059-16.892-19.568.039.039-18.083-19,.039.039-19.275-18.337.039.039L999.509,50.832l.039.039L977.891,33.9l.039.039L955.082,17.692l.059.039L931.1,2.245Z" transform="translate(0 -0.37)" fill="url(#linear-gradient)"/>
          </g>
          <g id="Group_39777" data-name="Group 39777" transform="translate(0 1.445)">
            <path id="Path_34306" data-name="Path 34306" d="M968.244.74,991.287,17.3,1013.2,34.6l20.681,17.947,19.49,18.63,18.3,19.236,17.107,19.8,15.9,20.388,14.705,20.915,13.475,21.4,12.3,21.891,11.092,22.321,9.881,22.751,8.69,23.1,7.479,23.493,6.249,23.825,5.058,24.1,3.847,24.352,2.636,24.586,1.426,24.8.234,24.977-1.016,25.133-2.207,25.25-3.417,25.309-4.648,25.407-5.839,25.387-7.089,25.426-8.28,25.387-9.51,25.309-10.721,25.231-11.951,25.133-13.162,24.957-14.393,24.782-15.584,24.586L1077.1,784.752l-18.064,24.1-19.255,23.786-20.5,23.454-21.735,23.1L974.61,901.9l-24.176,22.321-25.407,21.852-26.637,21.4-27.867,20.9-29.078,20.368-30.328,19.8-31.558,19.216-32.769,18.591-34,17.947-35.269,17.283-36.479,16.56-37.729,15.838-38.959,15.057-40.209,14.295-41.4,13.436-42.67,12.615-43.939,11.7-45.15,10.8-46.38,9.862-47.63,8.9-48.88,7.89-50.11,6.854-51.36,5.8L54,1255.9.156,1259.51,0,1257.264l53.84-3.593h-.02l52.59-4.706h-.039l51.34-5.8h-.02l50.071-6.835h-.02l48.86-7.89h-.02l47.591-8.905-.02.02,46.361-9.842h-.039l45.13-10.8h-.02l43.881-11.7-.02.02,42.65-12.615-.039.02,41.381-13.436-.02.02,40.17-14.275h-.039l38.94-15.037h-.039l37.71-15.818-.039.02,36.46-16.541h-.039l35.229-17.263-.02.02,33.96-17.947-.019.019,32.749-18.571-.039.019,31.539-19.2-.039.02,30.308-19.782-.039.019,29.058-20.349-.039.02L897.043,965.7l-.039.039,26.6-21.384-.02.02,25.387-21.833-.039.02,24.137-22.282-.02.02,22.907-22.692-.02.039,21.7-23.083-.019.039,20.466-23.434-.02.039,19.235-23.766-.039.039,18.044-24.04-.02.019,16.795-24.294-.02.02,15.564-24.528-.02.039,14.373-24.762-.02.039,13.143-24.9-.02.039,11.912-25.094-.02.059,10.7-25.192-.02.039,9.51-25.27-.02.039,8.241-25.328v.039l7.069-25.368-.02.039,5.839-25.348v.059l4.628-25.348v.059l3.417-25.27-.019.039L1198.5,458.1v.039l1-25.075v.059l-.215-24.918v.039L1197.86,383.5v.059l-2.617-24.528v.039l-3.847-24.293v.059l-5.019-24.059v.059l-6.23-23.747.02.039-7.479-23.415.02.039-8.651-23.063.02.059-9.862-22.692.02.059-11.073-22.282.039.059-12.284-21.833.039.039L1117.5,152.73l.02.039-14.666-20.856.039.039L1087.036,111.6l.039.039L1070.007,91.88l.02.039-18.259-19.2.039.039-19.45-18.572.039.039L1011.753,36.3l.039.039L989.94,19.058l.039.039L966.935,2.556Z" transform="translate(0 -0.74)" fill="url(#linear-gradient)"/>
          </g>
          <g id="Group_39778" data-name="Group 39778" transform="translate(0.02 2.168)">
            <path id="Path_34307" data-name="Path 34307" d="M1004.128,1.11l22.067,17.634,20.9,18.3,19.685,18.923,18.474,19.509,17.283,20.075,16.072,20.642,14.881,21.13,13.67,21.638,12.479,22.087,11.248,22.477,10.077,22.907,8.847,23.278,7.655,23.61,6.464,23.922,5.253,24.2,4.042,24.469,2.851,24.684,1.66,24.86.449,25.075-.762,25.172-1.953,25.309-3.144,25.368-4.374,25.446-5.546,25.446-6.757,25.465-7.948,25.407-9.178,25.368-10.331,25.25-11.541,25.153-12.752,25.016-13.943,24.84-15.135,24.625L1098.49,772.78l-17.537,24.137-18.728,23.844-19.919,23.551-21.13,23.18-22.3,22.809-23.512,22.419L950.678,934.71l-25.914,21.521-27.086,21.013-28.3,20.524-29.449,20-30.679,19.392-31.871,18.806-33.062,18.161-34.253,17.517-35.444,16.814-36.635,16.111-37.807,15.369-39.018,14.607-40.209,13.787-41.4,12.967-42.572,12.127-43.8,11.209L348.2,1214.944l-46.146,9.374-47.337,8.4-48.548,7.382-49.739,6.386-50.891,5.312-52.122,4.238L.147,1259.157l-.137-2.226,53.274-3.125h-.02l52.083-4.238h-.039l50.891-5.312h-.039l49.7-6.366h-.02l48.528-7.382h-.02l47.3-8.378h-.02l46.126-9.374-.02.02,44.935-10.311h-.039l43.783-11.209h-.039l42.553-12.088h-.039l41.381-12.967h-.02l40.17-13.768-.02.02,38.979-14.607-.02.02,37.768-15.349h-.02l36.6-16.092-.02.02,35.405-16.814h-.02l34.234-17.478h-.039l33.023-18.142-.039.02,31.851-18.787-.039.02,30.66-19.372-.039.02,29.43-19.978-.02.02,28.258-20.5-.02.019,27.047-20.993-.02.02,25.875-21.5-.039.039,24.665-21.95-.02.02,23.473-22.4-.02.039,22.282-22.79-.039.02,21.091-23.161-.02.039,19.9-23.512-.039.039L1079.2,795.55l-.039.039,17.517-24.1-.039.039,16.306-24.372-.019.039,15.115-24.586-.02.039,13.924-24.8-.039.039,12.733-24.957-.02.039,11.541-25.114-.019.039,10.311-25.211-.02.039,9.159-25.309v.039l7.929-25.368-.02.039,6.737-25.407-.02.039,5.546-25.407v.059l4.355-25.387-.02.039,3.144-25.309v.059l1.933-25.27v.059l.781-25.114-.019.059-.449-25.016.02.039-1.66-24.8.02.059-2.851-24.645v.059l-4.042-24.411v.059l-5.214-24.157v.059l-6.444-23.864.02.059-7.636-23.551.02.039-8.847-23.219.02.059-10.038-22.848.02.039-11.229-22.438.039.059-12.459-22.048.039.059-13.651-21.579.02.039L1116.788,117.5l.039.059-16.033-20.6.02.039L1083.57,76.959l.039.039-18.435-19.47.039.039-19.665-18.884.039.02L1024.73,20.443l.039.02-22.048-17.6Z" transform="translate(-0.01 -1.11)" fill="url(#linear-gradient)"/>
          </g>
          <g id="Group_39779" data-name="Group 39779" transform="translate(0.02 2.91)">
            <path id="Path_34308" data-name="Path 34308" d="M1040.06,1.49,1061.131,20.2l19.9,19.294L1099.7,59.353,1117.2,79.8l16.248,20.935,15.076,21.442,13.826,21.911L1175,166.428l11.424,22.731,10.252,23.122,9.042,23.454,7.811,23.805,6.64,24.1,5.429,24.372,4.257,24.586,3.046,24.84,1.836,24.977.644,25.172-.508,25.289-1.738,25.387-2.91,25.485-4.1,25.5-5.273,25.524-6.483,25.543-7.636,25.485-8.846,25.426-10.018,25.348-11.19,25.192-12.362,25.094-13.553,24.9-14.724,24.7-15.9,24.469-17.068,24.215-18.24,23.922-19.411,23.63-20.544,23.278-21.755,22.927L1000.2,901.423,976.143,923.51l-25.231,21.657-26.364,21.188-27.574,20.681-28.707,20.134-29.859,19.587L807.4,1045.739l-32.2,18.4-33.3,17.732-34.507,17.087-35.62,16.385-36.792,15.642-37.924,14.92L557.979,1160l-40.209,13.338-41.361,12.479-42.514,11.62-43.646,10.741L345.45,1218l-45.931,8.885-47.044,7.89-48.216,6.913-49.329,5.9-50.481,4.823-51.594,3.749L.127,1258.795l-.117-2.226,52.727-2.636H52.7l51.575-3.75-.02.02,50.442-4.843h-.02l49.31-5.878h-.02l48.177-6.913H252.1l47.025-7.89h-.02L345,1215.813h-.02l44.779-9.8h-.02l43.607-10.721h-.039l42.494-11.62-.02.02,41.322-12.479h-.039l40.19-13.318-.019.019,39.057-14.1h-.039l37.885-14.92-.02.02,36.753-15.623-.02.02,35.6-16.365h-.039l34.468-17.068-.02.02,33.277-17.712H774.1l32.183-18.357h-.039l30.992-18.962-.039.019,29.84-19.567-.039.02,28.668-20.114-.019.019,27.535-20.661-.019.039,26.344-21.188-.039.039,25.211-21.638-.019.02,24.02-22.048-.019.02,22.887-22.5-.039.02,21.735-22.887-.039.039,20.544-23.258-.019.02,19.372-23.591-.02.039,18.2-23.883-.02.039,17.048-24.2-.02.039,15.857-24.43-.02.02,14.7-24.665-.019.039,13.533-24.86-.02.039,12.342-25.036-.02.039,11.17-25.153-.02.039,10-25.289-.02.039,8.827-25.387v.039l7.616-25.446v.039l6.464-25.485-.02.059,5.273-25.485-.02.059,4.1-25.465v.039l2.89-25.426v.059l1.738-25.348v.059l.508-25.231v.039l-.644-25.114v.059l-1.836-24.938v.059l-3.047-24.762.02.039-4.238-24.528v.059L1218,284.146l.02.059-6.62-24.04v.059l-7.811-23.766.02.059-9-23.415.02.059L1184.4,190.1l.02.039-11.4-22.692.039.059-12.635-22.282.02.039-13.787-21.872.02.039-15.037-21.384.039.039-16.228-20.9.039.039-17.458-20.388.039.039-18.65-19.841.039.039L1059.589,21.8l.039.039L1038.576,3.169Z" transform="translate(-0.01 -1.49)" fill="url(#linear-gradient)"/>
          </g>
          <g id="Group_39780" data-name="Group 39780" transform="translate(0.039 3.632)">
            <path id="Path_34309" data-name="Path 34309" d="M1075.944,1.86l20.115,19.763,18.884,20.329L1132.6,62.789l16.463,21.325,15.232,21.794,14.041,22.263,12.83,22.653,11.6,23.044,10.409,23.4,9.2,23.747,8.026,24.02,6.8,24.333,5.624,24.586,4.413,24.821,3.222,25,2.051,25.153.84,25.328-.332,25.465-1.5,25.524-2.695,25.621-3.867,25.621-5.058,25.661-6.21,25.621-7.362,25.6-8.553,25.524-9.706,25.446-10.9,25.309-12.029,25.172-13.2,25-14.334,24.782-15.525,24.567-16.638,24.313-17.791,24.04L1088.7,821.238l-20.075,23.376-21.227,23.044-22.341,22.653-23.512,22.224-24.606,21.774-25.758,21.345-26.91,20.817-28,20.329-29.137,19.763-30.25,19.177-31.363,18.611-32.5,17.966-33.609,17.322-34.7,16.638-35.835,15.935L631.943,1137.4l-38.022,14.451-39.135,13.631-40.248,12.869-41.322,11.991L430.8,1201.478l-43.529,10.272-44.6,9.315-45.7,8.378-46.771,7.421-47.864,6.425-48.958,5.39-50.013,4.355-51.087,3.261L.1,1258.442l-.078-2.226,52.141-2.148h-.02l51.067-3.281-.02.019,49.993-4.355h-.039l48.938-5.39h-.02l47.825-6.405h-.02l46.751-7.421-.039.019,45.658-8.4-.02.02,44.584-9.315h-.039l43.51-10.252h-.02l42.377-11.131-.02.019,41.283-11.99h-.02l40.209-12.85-.019.02,39.1-13.631h-.02l38-14.432-.02.02,36.889-15.193-.039.02,35.815-15.935-.019.02,34.663-16.619-.02.02,33.57-17.3h-.02l32.456-17.927-.039.02,31.343-18.591h-.039l30.23-19.157-.02.02,29.1-19.743-.02.02,27.965-20.31-.02.019,26.871-20.8-.02.02,25.719-21.306-.02.02,24.586-21.774-.039.039,23.493-22.184-.039.02,22.321-22.634-.02.039,21.188-23-.02.02L1087,819.793l-.02.039,18.9-23.708-.02.039,17.771-24-.02.039,16.6-24.274-.02.02,15.506-24.528-.02.039,14.314-24.743-.039.039,13.182-24.957-.02.039,12.03-25.133-.02.039,10.858-25.27-.02.039,9.686-25.387v.039l8.534-25.485-.02.039,7.362-25.543-.02.039,6.21-25.582-.02.059,5.038-25.621v.039l3.867-25.563v.039l2.675-25.563v.059l1.484-25.485v.059l.352-25.407v.039l-.84-25.25v.039l-2.051-25.114.02.059-3.222-24.938v.039l-4.413-24.762.02.059-5.6-24.528v.059l-6.776-24.293.019.059-8.007-23.981.02.059L1211.1,198.1l.02.039-10.389-23.356.02.059-11.58-22.985.02.039L1176.4,129.284l.039.059-14.021-22.2.02.039L1147.243,85.4l.039.059-16.443-21.286.039.039-17.634-20.8.039.039-18.845-20.29.039.039L1074.382,3.461Z" transform="translate(-0.02 -1.86)" fill="url(#linear-gradient)"/>
          </g>
          <g id="Group_39781" data-name="Group 39781" transform="translate(0.039 4.374)">
            <path id="Path_34310" data-name="Path 34310" d="M1111.876,2.24l19.1,20.837L1148.864,44.4,1165.521,66.2l15.427,22.243,14.236,22.653,13.006,23.044,11.815,23.415,10.565,23.747,9.374,24.059,8.182,24.391,6.991,24.606,5.781,24.84,4.57,25.055,3.417,25.25,2.207,25.426,1.035,25.524-.137,25.66-1.328,25.7-2.5,25.8-3.652,25.8-4.843,25.817-5.976,25.8-7.147,25.739-8.28,25.661L1228.813,612l-10.6,25.426-11.737,25.309-12.85,25.114L1179.6,712.766l-15.174,24.684-16.248,24.411-17.42,24.157-18.532,23.864-19.646,23.512-20.739,23.161-21.872,22.77-23,22.38-24.059,21.931-25.192,21.5-26.3,20.993-27.359,20.485-28.473,19.958-29.586,19.372-30.621,18.806-31.714,18.2-32.808,17.556-33.882,16.873-34.956,16.209L666,1129.075l-37.065,14.744L590.8,1157.782l-39.194,13.2-40.248,12.342-41.3,11.541-42.338,10.662-43.392,9.745-44.427,8.866-45.462,7.889-46.517,6.913-47.493,5.917-48.548,4.921-49.583,3.847-50.618,2.793L.1,1258.1l-.078-2.246,51.575-1.66h-.02l50.579-2.812h-.02l49.544-3.828h-.02l48.528-4.9h-.039l47.493-5.937H247.6l46.478-6.894h-.02l45.423-7.89h-.02l44.408-8.846h-.039l43.373-9.725h-.02l42.3-10.643h-.02l41.264-11.541-.02.02,40.229-12.342H550.9l39.174-13.182-.039.02,38.12-13.963-.039.02L665.161,1127l-.039.02,35.991-15.486-.02.019,34.917-16.189h-.039l33.862-16.853-.039.02,32.788-17.556-.019.02,31.675-18.181-.039.02,30.621-18.786-.039.02,29.547-19.353-.02.02L922.762,984.8l-.039.02,27.34-20.466-.02.039L976.31,943.4l-.039.02,25.172-21.462-.039.019,24.04-21.911-.02.02,22.966-22.341-.02.02,21.852-22.751-.039.019,20.739-23.122-.039.039,19.626-23.493-.039.039,18.513-23.825-.02.039,17.38-24.137-.02.039,16.228-24.391-.02.039,15.154-24.645-.02.039,14-24.9-.039.039,12.85-25.055-.019.039,11.717-25.27-.02.039,10.584-25.387v.039l9.413-25.524-.02.039,8.28-25.621v.039l7.128-25.68-.02.039,5.976-25.739-.02.039,4.843-25.778-.019.059,3.652-25.758v.039l2.48-25.739v.059l1.328-25.66v.059l.137-25.621v.059l-1.035-25.465v.039l-2.207-25.348v.039l-3.4-25.192v.059l-4.57-25.016.02.059-5.761-24.8v.059L1246,230.372l.02.059-8.182-24.333.02.059-9.354-24.02.02.059-10.545-23.708.02.039-11.776-23.376.02.059-12.967-22.985.02.039L1179.074,89.65l.039.039L1163.705,67.5l.02.039-16.619-21.774.02.039-17.849-21.286.039.039-19.1-20.8Z" transform="translate(-0.02 -2.24)" fill="url(#linear-gradient)"/>
          </g>
          <g id="Group_39782" data-name="Group 39782" transform="translate(0.059 5.116)">
            <path id="Path_34311" data-name="Path 34311" d="M1147.741,2.62l18.123,21.872,16.873,22.341,15.681,22.77,14.432,23.161,13.182,23.512,12.01,23.844L1248.8,164.3l9.549,24.43,8.339,24.762,7.167,24.957,5.937,25.192,4.765,25.387,3.554,25.543,2.4,25.68,1.172,25.817.058,25.895-1.152,25.973-2.324,25.992-3.457,26.031-4.628,25.992-5.781,26.012-6.913,25.914-8.1,25.856-9.2,25.739-10.35,25.6-11.463,25.446-12.6,25.27-13.729,25.055-14.842,24.86-15.935,24.567L1154.2,774.563l-18.142,24-19.255,23.669-20.368,23.3-21.423,22.927-22.536,22.536L1028.91,913.1l-24.7,21.657L978.468,955.9l-26.813,20.681-27.887,20.153-28.922,19.587-30,19-31.011,18.435-32.085,17.771-33.12,17.146L734.5,1105.142l-35.171,15.76-36.206,15.037L625.9,1150.214l-38.256,13.514-39.233,12.713-40.268,11.912-41.264,11.034-42.26,10.174-43.275,9.276-44.232,8.339-45.228,7.4L245.66,1241l-47.161,5.429-48.177,4.413-49.114,3.379-50.091,2.3L.089,1257.718l-.059-2.246,51.009-1.191h-.02l50.071-2.3h-.02l49.095-3.359h-.02l48.138-4.413h-.039l47.142-5.41h-.02l46.2-6.425h-.039l45.209-7.4-.039.02,44.213-8.358-.02.019,43.236-9.276-.02.02,42.221-10.174h-.02l41.244-11.034-.039.02,40.248-11.893h-.039L586.94,1161.6l-.02.02,38.217-13.494H625.1l37.221-14.256h-.039l36.167-15.017-.02.019,35.151-15.759-.039.019,34.116-16.463-.02.02,33.081-17.127-.02.02,32.046-17.771-.02.02,30.972-18.415-.02.019,29.957-18.982-.039.02,28.9-19.587-.02.019,27.867-20.134-.039.039L977.1,954.147l-.039.02,25.719-21.13-.039.02,24.684-21.618-.039.02,23.571-22.087-.039.02,22.516-22.5-.039.02,21.4-22.887-.02.019,20.329-23.278-.02.039,19.216-23.649-.02.039,18.123-23.961-.02.039L1169.418,749l-.02.039,15.935-24.547-.02.039,14.8-24.821-.02.039,13.709-25.016-.02.039,12.576-25.231-.02.039,11.463-25.407-.02.039,10.331-25.563-.02.039,9.178-25.7v.059l8.065-25.817v.039l6.894-25.875v.059L1278,495.5v.039l4.628-25.953-.02.059,3.457-25.992v.039l2.3-25.934-.02.039,1.172-25.914v.059l-.059-25.856v.059l-1.191-25.758.02.039-2.383-25.621v.039l-3.554-25.485v.059l-4.745-25.348v.059l-5.917-25.153v.059l-7.147-24.918.02.059-8.319-24.7.02.059-9.53-24.391.02.039-10.741-24.118.02.039-11.971-23.805.02.039-13.162-23.454.019.039-14.412-23.122.039.039L1180.92,48.121l.02.039-16.833-22.3.02.039-18.1-21.852Z" transform="translate(-0.03 -2.62)" fill="url(#linear-gradient)"/>
          </g>
          <g id="Group_39783" data-name="Group 39783" transform="translate(0.059 5.859)">
            <path id="Path_34312" data-name="Path 34312" d="M1183.693,3,1200.8,25.946,1216.7,49.3l14.627,23.708,13.416,24.059,12.205,24.352,10.936,24.665,9.745,24.938,8.534,25.172,7.323,25.387,6.112,25.6,4.921,25.739,3.75,25.934,2.539,26.012L1312.151,351l.2,26.207-.976,26.246-2.129,26.285-3.3,26.3-4.453,26.246-5.6,26.227-6.737,26.168-7.87,26.07-9,25.934L1262.139,612.5l-11.229,25.641-12.362,25.465-13.475,25.25-14.549,25.016-15.662,24.762-16.755,24.45-17.829,24.176-18.923,23.825-19.978,23.493-21.052,23.1-22.106,22.692-23.18,22.282-24.215,21.833-25.25,21.384-26.324,20.837-27.34,20.329-28.355,19.821-29.41,19.216-30.386,18.65-31.441,18.005-32.417,17.4-33.433,16.7-34.409,16.052-35.425,15.31-36.382,14.588-37.378,13.846-38.334,13.045-39.33,12.244-40.268,11.4-41.225,10.565-42.162,9.686-43.158,8.788-44.056,7.85-44.994,6.932-45.931,5.917L196.565,1248l-47.767,3.925-48.665,2.89-49.583,1.8-50.481.742L.03,1255.11l50.462-.723h-.02l49.563-1.816h-.02l48.626-2.871h-.02l47.747-3.925-.02.02,46.81-4.96-.02.02,45.912-5.937-.02.02L333.987,1228h-.02l44.017-7.831h-.02l43.119-8.788h-.02l42.143-9.686-.039.02,41.205-10.546h-.039l40.268-11.4h-.039l39.291-12.225h-.019l38.315-13.026h-.039l37.358-13.826-.039.02,36.362-14.568h-.039l35.386-15.31-.02.02,34.39-16.033-.02.019,33.413-16.7h-.039l32.378-17.38-.02.019,31.4-17.986-.02.02,30.347-18.63-.019.02,29.371-19.2-.019.02,28.336-19.8-.039.02,27.34-20.31-.039.02,26.285-20.837-.039.039,25.231-21.345-.02.019,24.2-21.813-.02.019,23.141-22.263-.02.039,22.087-22.673-.02.02,21.013-23.063-.02.019,19.958-23.454-.039.019L1158.5,785.9l-.02.02,17.83-24.137-.039.039,16.736-24.43-.02.039,15.642-24.723-.02.039,14.529-25-.019.039,13.455-25.211-.02.039,12.342-25.426-.019.039,11.209-25.6-.02.039,10.116-25.778-.02.039,8.983-25.895v.059l7.85-26.031-.02.039,6.737-26.11-.02.039,5.6-26.168-.02.039,4.453-26.207v.059l3.281-26.266v.059l2.129-26.246v.039l.976-26.188v.039l-.2-26.149v.039l-1.348-26.051v.039l-2.539-25.973v.059l-3.73-25.875v.059l-4.9-25.719v.059l-6.093-25.543.02.059-7.323-25.348.02.059-8.495-25.133v.059l-9.725-24.9.02.039-10.917-24.606.02.039-12.186-24.313.02.039-13.377-24,.02.039L1214.8,50.493l.039.039-15.877-23.3.039.039L1181.9,4.328Z" transform="translate(-0.03 -3)" fill="url(#linear-gradient)"/>
          </g>
          <g id="Group_39784" data-name="Group 39784" transform="translate(0.078 6.601)">
            <path id="Path_34313" data-name="Path 34313" d="M1219.557,3.38l16.13,24,14.881,24.352,13.65,24.684,12.4,24.957,11.17,25.231,9.92,25.465,8.729,25.68,7.5,25.875,6.288,26.051,5.1,26.207,3.886,26.324,2.714,26.461,1.5,26.5.352,26.559-.82,26.617-1.972,26.617-3.164,26.6-4.277,26.578-5.429,26.5-6.562,26.461-7.675,26.3-8.827,26.227-9.94,26.031-11.034,25.875-12.147,25.7L1248.713,676.7l-14.334,25.231-15.427,24.938-16.482,24.684-17.517,24.352-18.611,24.04-19.685,23.688-20.72,23.278-21.755,22.927-22.79,22.477-23.825,22.028-24.84,21.56-25.856,21.052L980.02,977.5l-27.887,20.036-28.863,19.431-29.84,18.884-30.816,18.259L830.8,1071.727l-32.788,16.99-33.726,16.306-34.7,15.6-35.64,14.881-36.6,14.139-37.514,13.4-38.452,12.576-39.37,11.756-40.287,10.956-41.186,10.077-42.123,9.2-42.982,8.28-43.881,7.4-44.779,6.405-45.638,5.448-46.5,4.453-47.376,3.437-48.235,2.4-49.075,1.308-49.915.254v-2.226l49.9-.254h-.02l49.056-1.308h-.039l48.216-2.4h-.02l47.337-3.437h-.02l46.478-4.453h-.039l45.619-5.448-.02.02,44.74-6.405h-.02l43.861-7.382h-.039l42.963-8.28h-.039l42.1-9.178h-.039l41.166-10.077-.02.02,40.248-10.955h-.02l39.33-11.737h-.02l38.413-12.576-.019.02,37.495-13.377h-.02l36.557-14.139-.02.02,35.6-14.881-.039.02,34.683-15.584-.02.019,33.706-16.287-.039.02,32.749-16.99-.02.02,31.792-17.615-.039.02,30.8-18.24-.039.02,29.82-18.865h-.02l28.844-19.411-.039.019,27.848-20-.019.02,26.832-20.544-.019.02,25.817-21.032-.02.039,24.821-21.54-.039.02L1079.87,890.7l-.039.02,22.77-22.458-.02.019,21.735-22.887-.039.039,20.7-23.278-.02.039,19.646-23.649-.02.02,18.591-24-.039.039,17.517-24.333-.02.039,16.463-24.645-.02.02,15.389-24.9-.02.039,14.314-25.211-.02.039,13.2-25.426-.02.039,12.127-25.66-.02.039,11.014-25.836v.039l9.92-25.992-.02.039,8.807-26.168-.02.039,7.675-26.266-.02.039,6.542-26.4v.039l5.429-26.461-.02.039,4.277-26.52v.039l3.144-26.539v.039l1.953-26.559v.039l.84-26.559v.039l-.371-26.5.02.059-1.5-26.461v.039l-2.714-26.4.019.059-3.886-26.285.02.059-5.1-26.168v.059l-6.269-25.992v.039l-7.479-25.836.02.059-8.69-25.641v.039l-9.9-25.426.019.059-11.151-25.172.02.039-12.381-24.918.02.039-13.611-24.625.02.039-14.861-24.333.02.039L1217.7,4.61Z" transform="translate(-0.04 -3.38)" fill="url(#linear-gradient)"/>
          </g>
          <g id="Group_39785" data-name="Group 39785" transform="translate(0.078 7.343)">
            <path id="Path_34314" data-name="Path 34314" d="M1255.47,3.76,1270.6,28.835l13.885,25.348,12.635,25.641,11.385,25.856,10.135,26.09,8.925,26.266,7.694,26.461,6.464,26.578,5.253,26.715,4.081,26.832,2.851,26.891,1.679,26.949.508,27.027-.683,27.008-1.836,26.988-2.968,26.988-4.14,26.91-5.292,26.852-6.405,26.774-7.519,26.637-8.651,26.481-9.764,26.344-10.858,26.168-11.971,25.953-13.026,25.719-14.119,25.465-15.174,25.211-16.248,24.9-17.322,24.606-18.337,24.274-19.392,23.9-20.407,23.493-21.462,23.122-22.477,22.692L1084.6,904.24l-24.469,21.774L1034.661,947.3l-26.442,20.759L980.782,988.31l-28.395,19.685-29.351,19.1-30.308,18.513-31.246,17.888-32.222,17.244-33.12,16.56-34.058,15.9-34.976,15.193-35.854,14.432-36.772,13.689-37.69,12.928-38.549,12.127-39.428,11.307-40.287,10.448-41.166,9.608-42.025,8.71-42.846,7.811-43.724,6.874-44.525,5.917-45.345,4.98-46.165,3.964-46.986,2.929-47.786,1.914-48.567.84L.04,1256.632v-2.226l49.349.234h-.02l48.548-.84h-.039l47.747-1.914h-.02l46.966-2.949-.039.02,46.146-3.964h-.02l45.326-4.96h-.02l44.486-5.917h-.02l43.685-6.874h-.02l42.826-7.792h-.02l41.986-8.71h-.039L498,1201.151h-.02l40.268-10.448-.02.02,39.389-11.307h-.039l38.53-12.108h-.02l37.651-12.908-.039.02,36.753-13.689-.019.02,35.835-14.432h-.039l34.956-15.174-.019.02,34.019-15.877-.039.02,33.1-16.56-.02.02,32.183-17.244-.019.02,31.207-17.869-.019.02,30.269-18.494-.02.02,29.332-19.079h-.039l28.375-19.665-.02.019,27.4-20.232-.02.039,26.422-20.759-.02.02,25.426-21.247-.02.02,24.43-21.755-.039.02,23.454-22.223-.02.02,22.438-22.673-.02.039,21.423-23.1-.02.039,20.388-23.473-.02.02,19.353-23.883-.02.039,18.318-24.235-.02.039,17.3-24.586-.02.039,16.209-24.879-.019.039,15.174-25.172-.039.039,14.1-25.446-.02.039,13.026-25.68-.02.039,11.951-25.914-.02.039,10.838-26.129-.02.039,9.764-26.285-.02.039,8.632-26.461-.02.059,7.5-26.6v.039l6.406-26.715-.02.039,5.292-26.813-.02.059,4.12-26.871v.039l2.968-26.93v.039l1.836-26.949v.059l.683-26.969v.059l-.508-26.988v.059l-1.679-26.91v.039l-2.851-26.832.02.039-4.081-26.754.02.039-5.253-26.676.019.059-6.464-26.52.02.039-7.694-26.422.02.059-8.885-26.227v.039l-10.116-26.032.02.039-11.366-25.8.02.039L1282.5,55.2l.02.039-13.865-25.309.02.039L1253.556,4.912Z" transform="translate(-0.04 -3.76)" fill="url(#linear-gradient)"/>
          </g>
          <g id="Group_39786" data-name="Group 39786" transform="translate(0.059 8.065)">
            <path id="Path_34315" data-name="Path 34315" d="M1291.354,4.13l14.139,26.129L1318.4,56.642l11.6,26.6,10.389,26.774,9.12,26.93,7.909,27.086,6.659,27.2,5.448,27.3,4.238,27.359,3.007,27.457,1.836,27.477.664,27.457-.527,27.477-1.68,27.477-2.851,27.418L1370.229,438l-5.136,27.223-6.269,27.145-7.382,27.008-8.495,26.832-9.628,26.676-10.682,26.481-11.8,26.266-12.869,26.012-13.943,25.778-15,25.465L1253,728.052l-17.087,24.879L1217.79,777.46,1198.632,801.6l-20.173,23.766-21.169,23.376-22.184,22.926-23.161,22.477-24.137,22.028-25.114,21.52L1036.6,958.7l-27.047,20.485-27.984,19.939-28.9,19.353-29.879,18.747-30.757,18.142-31.675,17.517-32.593,16.853-33.472,16.17-34.37,15.486-35.229,14.744-36.108,14.021L651.6,1163.382l-37.807,12.479L575.145,1187.5l-39.506,10.838-40.307,10-41.127,9.1-41.928,8.241L369.549,1233,326,1239.387l-44.291,5.448-45.072,4.453-45.833,3.476-46.576,2.461-47.337,1.406L48.812,1257,.03,1256.279l.039-2.226,48.763.7h-.02l48.06-.351h-.02l47.3-1.406h-.02l46.536-2.461h-.02l45.814-3.476h-.02l45.033-4.453h-.02l44.271-5.448h-.039l43.51-6.386-.02.02,42.709-7.323-.039.02,41.908-8.241h-.02l41.108-9.1-.039.02,40.287-9.979h-.039l39.487-10.838-.039.02,38.627-11.639h-.02l37.788-12.459h-.039l36.948-13.221-.02.019,36.069-14.021-.019.02,35.21-14.724h-.039l34.351-15.467-.019.019,33.433-16.15h-.02l32.554-16.834h-.02l31.656-17.5-.02.02,30.718-18.123-.02.02,29.84-18.747-.02.02,28.883-19.333-.039.02,27.965-19.919-.02.02,27.008-20.466-.02.02,26.051-20.993-.02.02,25.094-21.5-.02.019,24.118-21.989-.039.019,23.141-22.458-.039.02,22.165-22.887-.02.02,21.13-23.337-.02.02,20.153-23.727-.02.019,19.118-24.118-.02.039,18.122-24.489-.039.02,17.068-24.84-.02.039,16.013-25.153-.02.039L1282.1,676.3l-.019.02L1296,650.6l-.019.02,12.85-25.973-.02.039,11.776-26.227v.039l10.663-26.442-.02.039,9.628-26.637-.02.059,8.456-26.793v.039l7.362-26.969v.039l6.249-27.106v.039l5.136-27.164-.02.039,3.984-27.281v.039l2.832-27.379-.02.059,1.7-27.418v.039l.527-27.438v.059l-.664-27.418v.039l-1.836-27.418.02.039-3.027-27.4v.059l-4.218-27.32v.039l-5.429-27.242v.039l-6.64-27.145.02.039-7.909-27.027.02.039-9.1-26.91.02.059-10.37-26.715.02.039-11.6-26.559.02.039L1303.5,31.255l.02.039L1289.381,5.2Z" transform="translate(-0.03 -4.13)" fill="url(#linear-gradient)"/>
          </g>
          <g id="Group_39787" data-name="Group 39787" transform="translate(0.059 8.807)">
            <path id="Path_34316" data-name="Path 34316" d="M1327.247,4.51l13.143,27.2L1352.3,59.092l10.6,27.555,9.374,27.691,8.124,27.789,6.855,27.867,5.644,27.965,4.413,28.023,3.2,28,1.992,28.063.82,28.063-.371,28-1.543,27.965-2.714,27.887-3.847,27.809-5,27.691-6.112,27.574-7.284,27.418L1368.1,531.7l-9.471,27.047L1348.064,585.6l-11.639,26.617-12.713,26.364-13.787,26.09-14.842,25.817-15.857,25.465-16.912,25.153-17.927,24.821-18.943,24.43-19.958,24.059-20.954,23.63-21.931,23.2L1139.7,884l-23.864,22.263-24.821,21.813-25.8,21.267-26.7,20.759-27.633,20.193-28.531,19.626L952.9,1028.937l-30.347,18.415-31.226,17.79-32.1,17.127-32.964,16.463-33.843,15.76-34.663,15.076-35.542,14.314-36.323,13.572-37.143,12.791-37.963,12.01-38.764,11.209-39.545,10.35-40.346,9.53-41.088,8.632-41.85,7.733-42.611,6.835-43.353,5.917-44.056,4.921-44.779,3.984-45.5,2.988-46.2,1.953-46.868.937-47.571-.117L.03,1255.937l.039-2.246,48.216,1.191h-.02l47.552.137h-.039l46.849-.937h-.02l46.165-1.972h-.02l45.482-2.968H234.2l44.759-3.984-.02.02,44.037-4.941h-.039l43.334-5.9h-.02l42.572-6.835h-.02l41.811-7.714h-.02l41.068-8.632h-.02l40.307-9.51h-.02l39.506-10.331h-.02l38.725-11.19h-.02l37.924-11.991h-.019l37.124-12.791h-.039l36.323-13.533h-.039l35.5-14.314h-.02l34.624-15.037h-.02l33.823-15.76-.039.02,32.945-16.443-.02.02,32.066-17.107h-.02l31.187-17.771-.02.019,30.328-18.415-.02.02,29.43-19-.039.02,28.512-19.607-.02.02L1037.19,968.3l-.039.019,26.7-20.72-.039.02,25.758-21.267-.02.039,24.782-21.794-.02.02,23.864-22.243-.039.019L1161,859.664l-.02.039,21.911-23.18-.02.039,20.915-23.61-.02.02,19.939-24.02-.02.019,18.923-24.391-.039.039,17.927-24.8-.02.039,16.892-25.133-.039.039,15.857-25.446-.02.039,14.8-25.778-.019.039,13.787-26.071-.02.039,12.693-26.3-.02.039,11.62-26.6-.02.039,10.545-26.813-.019.039,9.471-27.008-.02.039,8.358-27.2-.02.039,7.265-27.359-.02.039,6.113-27.516v.039l4.98-27.652v.039l3.847-27.75-.02.039,2.714-27.848v.039l1.543-27.906v.039l.351-27.945.02.039-.82-28.023v.059l-1.992-28v.039l-3.183-27.965v.039l-4.413-27.965.019.039-5.644-27.906.02.039-6.854-27.809v.039l-8.1-27.75.02.059L1360.8,87.389l.019.039-10.6-27.516.02.059-11.873-27.34.02.039L1325.236,5.486Z" transform="translate(-0.03 -4.51)" fill="url(#linear-gradient)"/>
          </g>
          <g id="Group_39788" data-name="Group 39788" transform="translate(0.039 9.549)">
            <path id="Path_34317" data-name="Path 34317" d="M1363.15,4.89l12.186,28.277,10.858,28.394,9.628,28.512,8.339,28.57,7.108,28.668,5.839,28.668,4.589,28.726,3.4,28.707,2.187,28.707.976,28.648-.234,28.629-1.387,28.531-2.558,28.453-3.73,28.336-4.843,28.219-6,28.043-7.147,27.906-8.241,27.691-9.335,27.477-10.448,27.281-11.5,27.027-12.6,26.735-13.631,26.461-14.705,26.168-15.74,25.856-16.755,25.485L1271.659,754.2l-18.786,24.762-19.782,24.352-20.759,23.942-21.716,23.512-22.692,23.044-23.63,22.555-24.586,22.067-25.5,21.579-26.4,21.032-27.34,20.446-28.2,19.919-29.1,19.314-29.976,18.708L922.333,1057.5l-31.695,17.419-32.515,16.756-33.374,16.072-34.194,15.349-34.976,14.666-35.8,13.865-36.557,13.143-37.358,12.342-38.1,11.58-38.862,10.721-39.623,9.9-40.326,9.022-41.068,8.163-41.791,7.265-42.455,6.327-43.138,5.39-43.861,4.472-44.486,3.476-45.15,2.48-45.814,1.484-46.439.43-47.064-.605L.02,1255.555l.078-2.246,47.65,1.68h-.02l47.044.605h-.02l46.4-.43h-.02l45.775-1.484h-.02l45.13-2.48h-.039l44.486-3.476h-.039l43.842-4.453h-.039l43.119-5.409h-.02l42.435-6.308h-.02l41.732-7.265h-.02l41.049-8.143h-.02l40.287-9.022-.02.02,39.6-9.9-.039.019,38.842-10.721h-.02l38.061-11.561-.019.02,37.319-12.342h-.02l36.538-13.123-.02.02,35.757-13.885-.02.02,34.956-14.646-.039.02,34.155-15.349-.019.019,33.335-16.052h-.02l32.476-16.736-.02.02,31.675-17.419-.02.019,30.816-18.064-.019.02,29.937-18.689-.02.02,29.078-19.294-.019.02,28.18-19.9-.039.02,27.32-20.427-.039.02,26.383-21.013-.019.02,25.485-21.559-.02.039,24.547-22.067-.02.019,23.61-22.536-.039.039,22.673-23.024-.02.039,21.677-23.493-.02.039,20.739-23.922-.02.039,19.743-24.333-.02.039,18.767-24.762-.02.039,17.732-25.094-.02.039,16.736-25.465-.02.02,15.7-25.8-.02.019,14.686-26.129-.02.039L1348.25,624.1l-.02.039,12.576-26.715-.02.039,11.5-26.988-.019.039,10.428-27.242-.02.039,9.335-27.438-.02.039,8.222-27.652-.02.059,7.147-27.867-.02.039,6-28-.02.039,4.863-28.16-.02.039,3.71-28.3v.039l2.558-28.394v.039L1425.8,319.3v.059l.234-28.57v.039l-.976-28.609v.039l-2.187-28.668.02.059-3.4-28.668v.059L1414.9,176.35v.059l-5.819-28.629.02.039-7.109-28.609.02.039-8.319-28.531v.039L1384.085,62.3l.02.039-10.858-28.355.019.039L1361.1,5.788Z" transform="translate(-0.02 -4.89)" fill="url(#linear-gradient)"/>
          </g>
        </g>
      </g>
    </g>
    <circle id="Gold_Ellipse" data-name="Gold Ellipse" cx="406.5" cy="406.5" r="406.5" transform="matrix(-0.616, 0.788, -0.788, -0.616, 2277.654, -16.06)" fill="url(#linear-gradient-15)"/>
  </g>
</svg>
