<svg xmlns="http://www.w3.org/2000/svg" width="80.304" height="29.862" viewBox="0 0 80.304 29.862">
  <g id="SRG_header_Logo" data-name="SRG header Logo" transform="translate(-103.331 -44.432)">
    <path id="SRG_Logo" data-name="SRG Logo" d="M-29.967-25.662a5.353,5.353,0,0,0-3.486,1.092A3.848,3.848,0,0,0-34.8-21.4a3.6,3.6,0,0,0,1.6,3.171,11,11,0,0,0,3.864,1.6q2.268.5,4.536,1.155a8.148,8.148,0,0,1,3.864,2.415,7.192,7.192,0,0,1,1.6,5,7.778,7.778,0,0,1-2.73,5.8A10.247,10.247,0,0,1-29.379.294a12.069,12.069,0,0,1-7.434-2.142A6.99,6.99,0,0,1-39.669-7.77h5.124A4.471,4.471,0,0,0-33.117-4.7a5.357,5.357,0,0,0,3.7,1.134,5.551,5.551,0,0,0,3.843-1.26,3.88,3.88,0,0,0,1.407-2.982,3.9,3.9,0,0,0-.861-2.688,5.27,5.27,0,0,0-2.226-1.449,27.681,27.681,0,0,0-3-.861q-1.638-.378-3.3-.882a14.071,14.071,0,0,1-3.024-1.3,6.06,6.06,0,0,1-2.226-2.331,7.576,7.576,0,0,1-.861-3.759,7.668,7.668,0,0,1,2.751-6.153,10.665,10.665,0,0,1,7.14-2.331,11.222,11.222,0,0,1,7.014,2.016,7.713,7.713,0,0,1,2.919,5.838h-5.292a4.231,4.231,0,0,0-1.428-2.814A4.9,4.9,0,0,0-29.967-25.662ZM-8.883-11.844V0h-4.788V-29.19h10.08q4.956,0,7.644,2.457A8.081,8.081,0,0,1,6.741-20.5,8.534,8.534,0,0,1,4.956-15.2,8.606,8.606,0,0,1-.525-12.138L7.2,0H1.365L-5.943-11.844Zm0-13.608v9.87h5.292a5.651,5.651,0,0,0,4.074-1.3,4.823,4.823,0,0,0,1.344-3.633A4.823,4.823,0,0,0,.483-24.15a5.651,5.651,0,0,0-4.074-1.3Zm34.8,25.7A14.29,14.29,0,0,1,15.6-3.948a14.258,14.258,0,0,1-4.326-10.689A14.327,14.327,0,0,1,15.6-25.347a14.58,14.58,0,0,1,10.584-4.221,15.23,15.23,0,0,1,8.3,2.289,13.034,13.034,0,0,1,5.271,6.489H34q-2.352-4.41-7.812-4.41a9.561,9.561,0,0,0-7.2,2.9,10.58,10.58,0,0,0-2.793,7.665,10.58,10.58,0,0,0,2.793,7.665,9.261,9.261,0,0,0,6.951,2.9,9.536,9.536,0,0,0,6.615-2.2,9.4,9.4,0,0,0,2.961-5.985H24.549V-16H40.635v3.738a14.023,14.023,0,0,1-4.7,8.883A14.41,14.41,0,0,1,25.914.252Z" transform="translate(143 74)" fill="#f1f1f1"/>
  </g>
</svg>
